<svg width="217" height="204" viewBox="0 0 217 204" fill="none" xmlns="http://www.w3.org/2000/svg">
<path d="M207.543 123.156C207.247 121.461 206.908 119.771 206.529 118.088C206.537 118.041 206.537 117.992 206.529 117.945C205.995 115.527 205.408 113.108 204.749 110.707C204.02 107.968 203.219 105.247 202.364 102.562C200.971 97.296 198.716 92.2965 195.691 87.7654C194.171 85.5011 192.187 83.5852 189.871 82.1442C187.555 80.7033 184.959 79.7702 182.254 79.4067C182.69 81.36 182.567 83.3962 181.9 85.283C181.233 87.1699 180.048 88.8312 178.482 90.0773C177.478 91.4252 176.19 92.5362 174.709 93.3319C171.77 94.6182 168.48 94.8629 165.383 94.0254H165.045C161.76 93.7605 158.499 93.2432 155.293 92.4782C150.05 91.2389 144.647 90.819 139.276 91.2333C136.642 91.4467 128.047 91.2333 126.552 93.6342C126.908 93.0295 127.263 92.4249 127.602 91.8558C126.908 92.087 126.196 92.3537 125.519 92.6561C127.955 89.6629 130.017 86.3842 131.659 82.8925C134.948 73.5348 135.883 63.5124 134.382 53.7084C133.421 47.3539 131.419 41.2011 128.456 35.4973C127.183 33.0199 125.726 30.6419 124.096 28.3835C117.226 18.8511 106.993 9.85227 95.0875 8.19833H94.8206C93.2556 8.0085 91.681 7.90756 90.1045 7.896C85.1116 7.96416 80.1455 8.639 75.3157 9.90562C69.7071 11.2497 64.3154 13.3749 59.2989 16.2191L57.9464 17.0194C54.2841 19.2679 50.9436 22.0019 48.016 25.1468C44.9533 28.4061 42.4139 32.1196 40.4881 36.1553C40.3695 36.145 40.2506 36.1699 40.1461 36.2269C40.0417 36.2838 39.9563 36.3702 39.9008 36.4754C39.206 37.7433 38.611 39.0633 38.1212 40.4235C37.8364 41.206 37.5873 41.9885 37.3559 42.7888C37.0777 43.8321 36.852 44.8886 36.6796 45.9544C35.8696 51.0625 36.4158 56.2935 38.2635 61.1245C41.0042 68.2382 45.8804 74.2849 49.4575 80.9895C49.7422 81.5409 50.027 82.0744 50.2939 82.6435C51.8286 85.6224 52.7943 88.8611 53.1413 92.1937C53.3435 95.5089 52.8213 98.8284 51.6109 101.922C51.2727 102.829 50.8812 103.7 50.4541 104.625C46.8948 112.237 41.2889 118.728 38.0856 126.553C34.8566 134.334 33.5268 142.771 34.2059 151.166C34.6738 157.521 36.4314 163.713 39.3717 169.366C42.312 175.02 46.3734 180.016 51.3083 184.05C53.9168 186.148 56.7594 187.939 59.7794 189.385C68.1793 193.458 77.5759 194.347 86.83 194.72C91.2613 194.88 95.7282 194.898 100.266 194.72L108.648 194.916L125.555 195.414L135.005 195.681C139.08 195.787 143.351 195.93 147.694 195.912C154.593 196.002 161.485 195.406 168.266 194.133C171.251 193.547 174.18 192.708 177.022 191.626C178.019 191.235 178.998 190.808 179.977 190.345C185.266 187.726 189.993 184.102 193.893 179.675C197.152 176.015 199.905 171.936 202.08 167.546C205.626 160.162 207.974 152.262 209.038 144.142C210.106 136.637 208.878 130.572 207.543 123.156Z" fill="#F4E04D"/>
<path d="M51.1468 78.0376C50.0434 73.965 48.8688 69.9101 47.5875 65.8553C46.8756 63.4544 46.1282 61.0536 45.3629 58.6527C44.9892 57.1944 44.5977 55.7183 44.2062 54.26C43.6955 51.6416 42.9815 49.0669 42.0706 46.5593C41.4833 45.2077 40.2909 43.8028 38.6359 44.2474C36.9808 44.692 35.9308 47.4486 34.774 48.7468C34.3978 49.1762 33.9935 49.5802 33.5639 49.9562C30.8024 51.431 27.7802 52.3552 24.6657 52.6772C22.2979 52.8962 19.9149 52.8962 17.5471 52.6772C16.0878 52.5704 14.6463 52.3748 13.2048 52.1436C12.3262 51.9288 11.4206 51.8449 10.5175 51.8946C6.83364 52.4104 7.33194 57.639 8.34633 60.111C10.0076 63.5746 12.6824 66.4522 16.0166 68.3629C19.5621 70.5606 23.4744 72.1028 27.5665 72.9157C25.2336 73.2155 22.9489 73.8132 20.7682 74.6941C18.9886 75.4055 16.5683 76.686 15.7852 78.5177C15.0022 80.3495 17.2623 81.4699 18.6505 81.9146C20.9947 82.4357 23.4248 82.4357 25.769 81.9146C28.6129 81.5144 31.5023 81.5684 34.3291 82.0746C39.6681 83.0883 45.007 85.1691 50.5595 84.76C50.7746 84.7526 50.981 84.6731 51.1456 84.5345C51.3102 84.3958 51.4234 84.2059 51.4671 83.9953C52.873 82.9994 51.6095 79.3892 51.1468 78.0376Z" fill="#F07C1A"/>
<path d="M88.6274 37.6317C76.3123 36.6002 63.9615 35.9422 51.6286 35.0886C51.394 35.0678 51.1604 35.1372 50.9752 35.2826C50.7901 35.428 50.6673 35.6384 50.632 35.8711C50.3651 37.1871 50.1159 38.5209 49.9024 39.8548C48.9052 38.6108 47.6228 37.6252 46.1638 36.9813C44.7047 36.3374 43.112 36.0542 41.5202 36.1556C40.7213 36.1282 39.9275 36.2932 39.2058 36.6368C38.4841 36.9803 37.8557 37.4924 37.3737 38.1297C36.7157 39.6686 36.6398 41.3941 37.1601 42.9848C37.1967 43.1086 37.2608 43.2225 37.3478 43.3179C37.4348 43.4133 37.5422 43.4878 37.6621 43.5357C37.782 43.5836 37.9113 43.6038 38.0401 43.5946C38.1689 43.5854 38.294 43.5472 38.4059 43.4828C42.3745 40.6017 46.2719 44.4609 48.0515 47.8399C48.1442 48.0037 48.2896 48.1315 48.464 48.2025C48.6384 48.2735 48.8317 48.2836 49.0125 48.2312C48.8784 50.924 48.9498 53.6232 49.2261 56.3053C49.4207 58.1795 49.8573 60.0207 50.5252 61.7828C50.9098 63.0454 51.4796 64.2441 52.2159 65.3397C53.8721 67.6248 56.0747 69.4591 58.6226 70.675L58.8896 70.7995C61.6397 72.1815 64.6307 73.0208 67.6988 73.2715C69.3889 73.4598 71.0929 73.4896 72.7886 73.3604C76.5003 73.123 80.049 71.7497 82.9526 69.4271C85.8563 67.1045 87.9743 63.945 89.0189 60.3779C90.1362 56.32 90.7342 52.137 90.7986 47.9288C90.9409 45.3679 91.1011 42.7892 91.1901 40.2282C91.3502 38.4142 90.6028 37.7918 88.6274 37.6317Z" fill="#0A0A0A"/>
<path d="M55.4907 40.6018C53.6841 47.052 54.2006 53.9314 56.95 60.04C57.6652 61.7636 58.7389 63.3156 60.1 64.5928C61.1835 65.4748 62.4202 66.15 63.7482 66.5847C67.5963 67.9911 71.8275 67.9341 75.6363 66.4246C85.6378 62.2987 85.4955 51.0945 85.5489 41.9712C82.4879 42.6825 55.5441 40.3706 55.4907 40.6018Z" fill="#1787FC"/>
<path d="M67.5034 39.3572C64.0687 41.8826 61.0789 44.9949 57.9289 47.8404L55.9001 49.6188C58.8899 46.3109 61.9924 43.1097 65.2076 40.0153C65.3242 39.9097 65.3965 39.7639 65.4099 39.6072C65.4233 39.4506 65.3769 39.2946 65.28 39.1707C65.1831 39.0469 65.0428 38.9642 64.8875 38.9395C64.7321 38.9147 64.5731 38.9496 64.4424 39.0371C61.9239 40.6618 59.5107 42.4437 57.217 44.3724C58.7475 42.7363 60.2602 41.0823 61.7373 39.4106C62.0933 39.0193 61.506 38.5036 61.1145 38.7881L55.7755 42.5229C55.3484 42.8252 55.7755 43.4832 56.2916 43.1809L57.8933 42.0605C54.334 45.7774 50.9527 49.5832 47.4646 53.3179C47.0909 53.7092 47.7493 54.3494 48.1231 53.976C51.5928 50.5359 55.2591 47.2996 59.1035 44.2835C55.3188 48.1961 51.7061 52.2687 48.2654 56.5013C47.8205 57.0704 48.6214 57.9063 49.1731 57.4083L58.9077 48.5162C62.1298 45.8233 65.2126 42.9682 68.144 39.9619C68.6245 39.624 67.9483 39.0193 67.5034 39.3572Z" fill="white"/>
<path d="M83.7697 40.6197L78.5375 46.453C79.773 44.5633 80.805 42.5484 81.6163 40.4419C81.676 40.3023 81.6826 40.1458 81.635 40.0017C81.5873 39.8577 81.4886 39.736 81.3574 39.6595C81.2262 39.583 81.0716 39.5571 80.9227 39.5865C80.7737 39.616 80.6407 39.6988 80.5485 39.8194C72.3725 48.5258 64.6959 57.6875 57.5555 67.2606C57.5076 67.3532 57.4938 67.4596 57.5165 67.5614C57.5392 67.6631 57.5968 67.7536 57.6795 67.8171C57.7622 67.8807 57.8645 67.9132 57.9687 67.909C58.0729 67.9048 58.1723 67.8641 58.2496 67.7941C64.8521 59.5067 71.6325 51.3792 78.7689 43.5719C76.3136 47.7492 73.3222 51.5876 69.8706 54.9894C65.6707 59.3822 60.9724 63.597 58.1962 69.128C57.8581 69.8216 58.8547 70.284 59.3174 69.7682C65.9139 62.3818 72.5342 55.0132 79.1782 47.6623C77.0426 50.9346 74.8833 54.1891 72.7003 57.4259C68.9452 62.9746 64.8698 68.3099 61.1326 73.8764C61.0571 73.9754 61.024 74.1004 61.0407 74.2238C61.0574 74.3472 61.1225 74.4589 61.2216 74.5344C61.3207 74.6099 61.4458 74.6429 61.5692 74.6262C61.6927 74.6095 61.8045 74.5445 61.8801 74.4455C66.1621 69.2845 70.1261 63.868 73.7503 58.2262C77.5053 52.6597 81.1536 47.0399 84.8019 41.42C84.8834 41.2821 84.9117 41.1192 84.8816 40.9619C84.8516 40.8046 84.7651 40.6637 84.6385 40.5655C84.5119 40.4673 84.3538 40.4187 84.1938 40.4286C84.0339 40.4386 83.8831 40.5066 83.7697 40.6197Z" fill="white"/>
<mask id="path-7-outside-1" maskUnits="userSpaceOnUse" x="4.09375" y="3.09766" width="209" height="197" fill="black">
<rect fill="white" x="4.09375" y="3.09766" width="209" height="197"/>
<path d="M204.172 103.456C201.538 95.9864 198.281 88.0724 192.266 82.6304C190.861 81.3459 189.293 80.2517 187.603 79.3759C181.944 76.5304 181.98 78.9313 180.876 83.6797C180.609 84.8179 180.342 85.9561 180.093 87.1121C179.653 88.2134 179.054 89.244 178.313 90.171C177.31 91.5188 176.022 92.6299 174.541 93.4255C171.602 94.7118 168.312 94.9565 165.215 94.1191H164.877C161.745 93.5678 158.631 92.892 155.498 92.3406C146.6 90.5622 136.26 88.9794 127.398 91.9494C126.704 92.1806 125.992 92.4473 125.316 92.7497C127.752 89.7565 129.813 86.4778 131.455 82.9861C133.926 77.7019 135.514 72.0485 136.154 66.251C137.37 54.3118 134.665 42.3013 128.448 32.034C122.361 21.7725 112.894 12.4713 101.611 8.13189C89.6516 3.5791 76.0196 7.3316 65.0214 12.8625C63.0104 13.8762 61.035 14.9966 59.1308 16.206C50.5796 21.6349 43.3112 28.856 37.8284 37.3693C37.5032 37.5663 37.1883 37.78 36.8852 38.0095C36.7851 38.1152 36.7293 38.2553 36.7293 38.4008C36.7293 38.5463 36.7851 38.6864 36.8852 38.7921C36.8034 38.8382 36.7357 38.9059 36.6895 38.9877C36.2179 39.6613 35.9361 40.4491 35.8735 41.2688C35.8108 42.0884 35.9697 42.9099 36.3335 43.6472C36.2782 43.7093 36.2358 43.7818 36.209 43.8606C34.4293 48.9825 28.6811 50.7787 23.7515 50.7076C20.6816 50.5709 17.6251 50.2203 14.6041 49.6583C12.5575 49.3737 10.244 48.9291 8.41094 50.174C4.85166 52.6105 5.99063 57.4478 7.85925 60.5423C10.1761 64.424 13.3545 67.7218 17.149 70.1814C18.8102 71.3239 20.6102 72.2502 22.5057 72.938C20.7798 73.5749 19.0922 74.3112 17.4515 75.1432C16.6047 75.4951 15.8463 76.03 15.2309 76.7096C14.6155 77.3891 14.1583 78.1964 13.8922 79.0735C13.787 79.8668 13.9266 80.6733 14.2923 81.3851C14.658 82.097 15.2325 82.6804 15.9388 83.0572C17.9649 83.9005 20.2172 84.0322 22.3278 83.4307C27.4887 82.6482 32.4361 83.6975 37.4369 84.7645L38.1488 84.9601C39.582 85.3245 41.0491 85.539 42.5267 85.6004C45.3982 85.6802 48.2707 85.4837 51.1046 85.0135C54.5037 93.9057 49.3249 103.74 44.5021 111.245C41.6709 115.299 39.1315 119.548 36.903 123.961C34.9231 128.221 33.5397 132.733 32.7921 137.371C31.3401 146.115 32.1419 155.085 35.1218 163.433C38.1017 171.782 43.1614 179.234 49.8232 185.086C56.868 191.44 65.6236 195.589 75.0052 197.019C75.0885 197.022 75.1715 197.007 75.2486 196.975C75.3257 196.944 75.3952 196.896 75.4524 196.836C75.5096 196.775 75.5533 196.703 75.5805 196.624C75.6078 196.545 75.6179 196.462 75.6103 196.379C92.9796 197.351 110.367 197.541 127.772 196.948C134.356 196.717 140.959 196.379 147.543 195.934C150.373 195.739 153.203 195.525 156.015 195.294C160.054 194.956 164.076 194.6 168.116 194.174L170.252 193.942C174.345 193.631 178.369 192.714 182.193 191.221C189.312 188.198 194.651 181.796 198.851 175.518C203.105 168.987 206.189 161.765 207.962 154.177C212.127 137.424 209.92 119.64 204.172 103.456ZM37.0988 40.6416C37.2508 40.6927 37.4145 40.698 37.5695 40.6569C37.7246 40.6158 37.8641 40.5301 37.9708 40.4104L38.0776 40.2682C38.5225 39.5034 39.003 38.7565 39.5013 38.0095C41.1642 37.2582 43.0084 37.0011 44.8136 37.2692C46.6187 37.5373 48.3085 38.3191 49.6809 39.5212C49.7856 39.6079 49.9115 39.6652 50.0458 39.6871C50.18 39.709 50.3176 39.6948 50.4445 39.6459C50.5714 39.597 50.683 39.5151 50.7677 39.4088C50.8524 39.3025 50.9073 39.1756 50.9266 39.041C51.045 39.0317 51.1591 38.993 51.2587 38.9284C51.3582 38.8638 51.44 38.7753 51.4966 38.671C51.5532 38.5667 51.5828 38.45 51.5827 38.3313C51.5826 38.2127 51.5529 38.096 51.4961 37.9918C50.3571 35.5909 54.0766 35.8221 55.4113 35.8754L60.2519 36.1066L70.2535 36.5868C76.5891 36.8891 82.9246 37.2448 89.2779 37.4049C89.2779 37.7843 89.3135 38.1577 89.3847 38.5253C89.3665 38.6193 89.3665 38.7159 89.3847 38.8098C89.2245 44.3052 89.3847 49.8361 88.9754 55.3315C88.886 58.1476 88.1666 60.908 86.8701 63.4099C85.5736 65.9119 83.7329 68.092 81.4831 69.7901C72.2112 76.3703 59.3799 72.8312 53.2757 63.6545C49.9288 58.3079 48.5565 51.9607 49.3961 45.7102C49.3961 45.1233 48.4707 44.9988 48.3639 45.5679C48.2571 46.137 48.2038 46.5638 48.1504 47.0795C47.1878 45.3358 45.6454 43.9832 43.7902 43.2559C41.7382 42.412 39.4356 42.412 37.3835 43.2559C37.3835 43.1136 37.259 42.9892 37.2056 42.8647C36.9198 42.157 36.8822 41.3734 37.0988 40.6416ZM206.361 153.803C204.165 163.229 199.911 172.053 193.903 179.644C190.592 184.089 186.2 187.615 181.143 189.888L179.986 190.314C176.467 191.401 172.838 192.093 169.166 192.377C164.847 192.84 160.517 193.249 156.175 193.605C147.454 194.328 138.728 194.861 129.996 195.205L125.565 195.365C107.626 195.934 89.6813 195.721 71.7306 194.725C64.6772 192.792 58.0778 189.479 52.3147 184.979L51.2292 184.072C44.9468 178.711 40.1074 171.863 37.1522 164.154C35.5785 159.984 34.5613 155.625 34.1268 151.189C33.6271 146.19 33.861 141.146 34.8208 136.215C35.7122 131.521 37.2766 126.981 39.4657 122.734C41.7792 118.306 44.8046 114.233 47.3495 109.983C48.9757 107.43 50.3751 104.741 51.5317 101.944C53.836 96.3923 54.322 90.2538 52.9198 84.4088C52.119 81.6167 50.2681 83.2529 47.9012 83.5196C45.9465 83.7475 43.9772 83.8248 42.0106 83.7508C40.9344 83.6809 39.8642 83.5383 38.8072 83.324L36.2268 82.7727L34.9276 82.5237C32.247 81.9428 29.5186 81.6095 26.7769 81.5278C24.6988 81.6021 22.6289 81.8279 20.5837 82.2036C18.6439 82.4703 14.8532 82.2036 15.2448 79.2692C15.5117 77.4907 17.7007 76.3525 19.2312 75.7123C20.7617 75.0721 22.6659 74.1828 24.4099 73.4359C26.5554 73.9606 28.7958 73.9606 30.9412 73.4359C31.0864 73.3868 31.2099 73.2887 31.2904 73.1584C31.3709 73.0281 31.4034 72.8738 31.3823 72.7221C31.3612 72.5704 31.2879 72.4308 31.1749 72.3274C31.0619 72.224 30.9163 72.1631 30.7633 72.1554C29.0086 72.1957 27.2534 72.1006 25.5133 71.8709C25.4156 71.8356 25.3085 71.8356 25.2108 71.8709C24.3444 71.7037 23.4933 71.4658 22.6659 71.1595C19.9313 70.1985 17.4019 68.7326 15.2092 66.8379C11.899 64.0458 4.53132 56.5764 8.58891 52.0058C9.17934 51.4849 9.89135 51.1207 10.6595 50.9467C11.4276 50.7727 12.2271 50.7944 12.9846 51.0099C14.7643 51.2055 16.5439 51.5256 18.3236 51.7746C21.1991 52.266 24.1313 52.3319 27.026 51.9702C28.9616 51.7292 30.8191 51.0597 32.4631 50.0106C34.1071 48.9615 35.4962 47.5592 36.5293 45.9058C36.7807 45.4653 37.0007 45.0077 37.1878 44.5364H37.4547C38.426 44.1294 39.4732 43.9346 40.5261 43.9653C41.5789 43.996 42.613 44.2513 43.5589 44.7142C45.2532 45.635 46.6069 47.0751 47.4207 48.8224C47.4739 48.9244 47.5569 49.0079 47.6585 49.0619C47.7602 49.1159 47.8758 49.1378 47.9902 49.1247C47.6888 54.3114 49.0268 59.4614 51.8148 63.8465C54.6029 68.2316 58.6999 71.6297 63.5265 73.5604C74.2044 77.5263 86.8042 71.8887 89.8474 60.6668C90.655 57.1089 91.0255 53.4659 90.9508 49.8183C91.0398 45.5145 91.2177 41.1929 91.1821 36.8891C91.1877 36.7795 91.1696 36.6699 91.1291 36.5679C91.0885 36.4658 91.0265 36.3737 90.9471 36.2978C90.8678 36.2219 90.773 36.1639 90.6692 36.1278C90.5654 36.0918 90.4551 36.0785 90.3457 36.0888C90.2211 36.0125 90.0815 35.964 89.9364 35.9466C81.4297 35.3241 72.9052 35.0218 64.3807 34.6127L58.1698 34.3104C56.398 34.1019 54.6104 34.0602 52.8308 34.1859C51.2825 34.3993 49.2715 36.0533 49.5919 37.6183C48.3217 36.7709 46.8866 36.2013 45.3807 35.947C43.8749 35.6926 42.3322 35.7591 40.8538 36.1422C49.5618 23.7238 62.1798 14.5766 76.6958 10.1593C81.0125 8.78889 85.4983 8.0228 90.0254 7.88291C91.6927 7.86259 93.359 7.97558 95.0084 8.22081C95.4711 8.29195 95.9338 8.38087 96.3965 8.48758C107.911 10.8885 117.912 19.7984 124.497 29.2063C125.904 31.2098 127.182 33.3007 128.323 35.4664C131.351 41.1429 133.357 47.3071 134.249 53.6775C134.606 56.1807 134.767 58.7078 134.73 61.2359C134.518 73.6222 129.835 85.5149 121.543 94.7237L120.973 95.115C120.873 95.1831 120.789 95.2727 120.727 95.3773C120.666 95.4818 120.628 95.5988 120.617 95.7197L120.368 96.0042C120.267 96.1307 120.216 96.2899 120.225 96.4515C120.234 96.613 120.303 96.7656 120.417 96.88C120.532 96.9945 120.684 97.0627 120.846 97.0717C121.008 97.0808 121.167 97.03 121.294 96.929L121.756 96.5022C131.455 90.9535 142.133 91.5048 152.793 93.4788C158.132 94.4748 163.631 96.1109 169.077 96.2532C177.78 96.4666 181.339 89.2817 183.065 82.0257C183.368 80.7986 183.421 79.7671 185.058 80.2473C188.222 81.4403 191.002 83.4686 193.102 86.1161C197.907 91.5759 200.666 98.7252 202.979 105.519C203.567 107.297 204.118 109.076 204.617 110.854C205.293 113.237 205.898 115.656 206.396 118.092C206.404 118.139 206.404 118.188 206.396 118.235C209 129.949 208.987 142.094 206.361 153.803Z"/>
</mask>
<path d="M204.172 103.456C201.538 95.9864 198.281 88.0724 192.266 82.6304C190.861 81.3459 189.293 80.2517 187.603 79.3759C181.944 76.5304 181.98 78.9313 180.876 83.6797C180.609 84.8179 180.342 85.9561 180.093 87.1121C179.653 88.2134 179.054 89.244 178.313 90.171C177.31 91.5188 176.022 92.6299 174.541 93.4255C171.602 94.7118 168.312 94.9565 165.215 94.1191H164.877C161.745 93.5678 158.631 92.892 155.498 92.3406C146.6 90.5622 136.26 88.9794 127.398 91.9494C126.704 92.1806 125.992 92.4473 125.316 92.7497C127.752 89.7565 129.813 86.4778 131.455 82.9861C133.926 77.7019 135.514 72.0485 136.154 66.251C137.37 54.3118 134.665 42.3013 128.448 32.034C122.361 21.7725 112.894 12.4713 101.611 8.13189C89.6516 3.5791 76.0196 7.3316 65.0214 12.8625C63.0104 13.8762 61.035 14.9966 59.1308 16.206C50.5796 21.6349 43.3112 28.856 37.8284 37.3693C37.5032 37.5663 37.1883 37.78 36.8852 38.0095C36.7851 38.1152 36.7293 38.2553 36.7293 38.4008C36.7293 38.5463 36.7851 38.6864 36.8852 38.7921C36.8034 38.8382 36.7357 38.9059 36.6895 38.9877C36.2179 39.6613 35.9361 40.4491 35.8735 41.2688C35.8108 42.0884 35.9697 42.9099 36.3335 43.6472C36.2782 43.7093 36.2358 43.7818 36.209 43.8606C34.4293 48.9825 28.6811 50.7787 23.7515 50.7076C20.6816 50.5709 17.6251 50.2203 14.6041 49.6583C12.5575 49.3737 10.244 48.9291 8.41094 50.174C4.85166 52.6105 5.99063 57.4478 7.85925 60.5423C10.1761 64.424 13.3545 67.7218 17.149 70.1814C18.8102 71.3239 20.6102 72.2502 22.5057 72.938C20.7798 73.5749 19.0922 74.3112 17.4515 75.1432C16.6047 75.4951 15.8463 76.03 15.2309 76.7096C14.6155 77.3891 14.1583 78.1964 13.8922 79.0735C13.787 79.8668 13.9266 80.6733 14.2923 81.3851C14.658 82.097 15.2325 82.6804 15.9388 83.0572C17.9649 83.9005 20.2172 84.0322 22.3278 83.4307C27.4887 82.6482 32.4361 83.6975 37.4369 84.7645L38.1488 84.9601C39.582 85.3245 41.0491 85.539 42.5267 85.6004C45.3982 85.6802 48.2707 85.4837 51.1046 85.0135C54.5037 93.9057 49.3249 103.74 44.5021 111.245C41.6709 115.299 39.1315 119.548 36.903 123.961C34.9231 128.221 33.5397 132.733 32.7921 137.371C31.3401 146.115 32.1419 155.085 35.1218 163.433C38.1017 171.782 43.1614 179.234 49.8232 185.086C56.868 191.44 65.6236 195.589 75.0052 197.019C75.0885 197.022 75.1715 197.007 75.2486 196.975C75.3257 196.944 75.3952 196.896 75.4524 196.836C75.5096 196.775 75.5533 196.703 75.5805 196.624C75.6078 196.545 75.6179 196.462 75.6103 196.379C92.9796 197.351 110.367 197.541 127.772 196.948C134.356 196.717 140.959 196.379 147.543 195.934C150.373 195.739 153.203 195.525 156.015 195.294C160.054 194.956 164.076 194.6 168.116 194.174L170.252 193.942C174.345 193.631 178.369 192.714 182.193 191.221C189.312 188.198 194.651 181.796 198.851 175.518C203.105 168.987 206.189 161.765 207.962 154.177C212.127 137.424 209.92 119.64 204.172 103.456ZM37.0988 40.6416C37.2508 40.6927 37.4145 40.698 37.5695 40.6569C37.7246 40.6158 37.8641 40.5301 37.9708 40.4104L38.0776 40.2682C38.5225 39.5034 39.003 38.7565 39.5013 38.0095C41.1642 37.2582 43.0084 37.0011 44.8136 37.2692C46.6187 37.5373 48.3085 38.3191 49.6809 39.5212C49.7856 39.6079 49.9115 39.6652 50.0458 39.6871C50.18 39.709 50.3176 39.6948 50.4445 39.6459C50.5714 39.597 50.683 39.5151 50.7677 39.4088C50.8524 39.3025 50.9073 39.1756 50.9266 39.041C51.045 39.0317 51.1591 38.993 51.2587 38.9284C51.3582 38.8638 51.44 38.7753 51.4966 38.671C51.5532 38.5667 51.5828 38.45 51.5827 38.3313C51.5826 38.2127 51.5529 38.096 51.4961 37.9918C50.3571 35.5909 54.0766 35.8221 55.4113 35.8754L60.2519 36.1066L70.2535 36.5868C76.5891 36.8891 82.9246 37.2448 89.2779 37.4049C89.2779 37.7843 89.3135 38.1577 89.3847 38.5253C89.3665 38.6193 89.3665 38.7159 89.3847 38.8098C89.2245 44.3052 89.3847 49.8361 88.9754 55.3315C88.886 58.1476 88.1666 60.908 86.8701 63.4099C85.5736 65.9119 83.7329 68.092 81.4831 69.7901C72.2112 76.3703 59.3799 72.8312 53.2757 63.6545C49.9288 58.3079 48.5565 51.9607 49.3961 45.7102C49.3961 45.1233 48.4707 44.9988 48.3639 45.5679C48.2571 46.137 48.2038 46.5638 48.1504 47.0795C47.1878 45.3358 45.6454 43.9832 43.7902 43.2559C41.7382 42.412 39.4356 42.412 37.3835 43.2559C37.3835 43.1136 37.259 42.9892 37.2056 42.8647C36.9198 42.157 36.8822 41.3734 37.0988 40.6416ZM206.361 153.803C204.165 163.229 199.911 172.053 193.903 179.644C190.592 184.089 186.2 187.615 181.143 189.888L179.986 190.314C176.467 191.401 172.838 192.093 169.166 192.377C164.847 192.84 160.517 193.249 156.175 193.605C147.454 194.328 138.728 194.861 129.996 195.205L125.565 195.365C107.626 195.934 89.6813 195.721 71.7306 194.725C64.6772 192.792 58.0778 189.479 52.3147 184.979L51.2292 184.072C44.9468 178.711 40.1074 171.863 37.1522 164.154C35.5785 159.984 34.5613 155.625 34.1268 151.189C33.6271 146.19 33.861 141.146 34.8208 136.215C35.7122 131.521 37.2766 126.981 39.4657 122.734C41.7792 118.306 44.8046 114.233 47.3495 109.983C48.9757 107.43 50.3751 104.741 51.5317 101.944C53.836 96.3923 54.322 90.2538 52.9198 84.4088C52.119 81.6167 50.2681 83.2529 47.9012 83.5196C45.9465 83.7475 43.9772 83.8248 42.0106 83.7508C40.9344 83.6809 39.8642 83.5383 38.8072 83.324L36.2268 82.7727L34.9276 82.5237C32.247 81.9428 29.5186 81.6095 26.7769 81.5278C24.6988 81.6021 22.6289 81.8279 20.5837 82.2036C18.6439 82.4703 14.8532 82.2036 15.2448 79.2692C15.5117 77.4907 17.7007 76.3525 19.2312 75.7123C20.7617 75.0721 22.6659 74.1828 24.4099 73.4359C26.5554 73.9606 28.7958 73.9606 30.9412 73.4359C31.0864 73.3868 31.2099 73.2887 31.2904 73.1584C31.3709 73.0281 31.4034 72.8738 31.3823 72.7221C31.3612 72.5704 31.2879 72.4308 31.1749 72.3274C31.0619 72.224 30.9163 72.1631 30.7633 72.1554C29.0086 72.1957 27.2534 72.1006 25.5133 71.8709C25.4156 71.8356 25.3085 71.8356 25.2108 71.8709C24.3444 71.7037 23.4933 71.4658 22.6659 71.1595C19.9313 70.1985 17.4019 68.7326 15.2092 66.8379C11.899 64.0458 4.53132 56.5764 8.58891 52.0058C9.17934 51.4849 9.89135 51.1207 10.6595 50.9467C11.4276 50.7727 12.2271 50.7944 12.9846 51.0099C14.7643 51.2055 16.5439 51.5256 18.3236 51.7746C21.1991 52.266 24.1313 52.3319 27.026 51.9702C28.9616 51.7292 30.8191 51.0597 32.4631 50.0106C34.1071 48.9615 35.4962 47.5592 36.5293 45.9058C36.7807 45.4653 37.0007 45.0077 37.1878 44.5364H37.4547C38.426 44.1294 39.4732 43.9346 40.5261 43.9653C41.5789 43.996 42.613 44.2513 43.5589 44.7142C45.2532 45.635 46.6069 47.0751 47.4207 48.8224C47.4739 48.9244 47.5569 49.0079 47.6585 49.0619C47.7602 49.1159 47.8758 49.1378 47.9902 49.1247C47.6888 54.3114 49.0268 59.4614 51.8148 63.8465C54.6029 68.2316 58.6999 71.6297 63.5265 73.5604C74.2044 77.5263 86.8042 71.8887 89.8474 60.6668C90.655 57.1089 91.0255 53.4659 90.9508 49.8183C91.0398 45.5145 91.2177 41.1929 91.1821 36.8891C91.1877 36.7795 91.1696 36.6699 91.1291 36.5679C91.0885 36.4658 91.0265 36.3737 90.9471 36.2978C90.8678 36.2219 90.773 36.1639 90.6692 36.1278C90.5654 36.0918 90.4551 36.0785 90.3457 36.0888C90.2211 36.0125 90.0815 35.964 89.9364 35.9466C81.4297 35.3241 72.9052 35.0218 64.3807 34.6127L58.1698 34.3104C56.398 34.1019 54.6104 34.0602 52.8308 34.1859C51.2825 34.3993 49.2715 36.0533 49.5919 37.6183C48.3217 36.7709 46.8866 36.2013 45.3807 35.947C43.8749 35.6926 42.3322 35.7591 40.8538 36.1422C49.5618 23.7238 62.1798 14.5766 76.6958 10.1593C81.0125 8.78889 85.4983 8.0228 90.0254 7.88291C91.6927 7.86259 93.359 7.97558 95.0084 8.22081C95.4711 8.29195 95.9338 8.38087 96.3965 8.48758C107.911 10.8885 117.912 19.7984 124.497 29.2063C125.904 31.2098 127.182 33.3007 128.323 35.4664C131.351 41.1429 133.357 47.3071 134.249 53.6775C134.606 56.1807 134.767 58.7078 134.73 61.2359C134.518 73.6222 129.835 85.5149 121.543 94.7237L120.973 95.115C120.873 95.1831 120.789 95.2727 120.727 95.3773C120.666 95.4818 120.628 95.5988 120.617 95.7197L120.368 96.0042C120.267 96.1307 120.216 96.2899 120.225 96.4515C120.234 96.613 120.303 96.7656 120.417 96.88C120.532 96.9945 120.684 97.0627 120.846 97.0717C121.008 97.0808 121.167 97.03 121.294 96.929L121.756 96.5022C131.455 90.9535 142.133 91.5048 152.793 93.4788C158.132 94.4748 163.631 96.1109 169.077 96.2532C177.78 96.4666 181.339 89.2817 183.065 82.0257C183.368 80.7986 183.421 79.7671 185.058 80.2473C188.222 81.4403 191.002 83.4686 193.102 86.1161C197.907 91.5759 200.666 98.7252 202.979 105.519C203.567 107.297 204.118 109.076 204.617 110.854C205.293 113.237 205.898 115.656 206.396 118.092C206.404 118.139 206.404 118.188 206.396 118.235C209 129.949 208.987 142.094 206.361 153.803Z" fill="black"/>
<path d="M204.172 103.456C201.538 95.9864 198.281 88.0724 192.266 82.6304C190.861 81.3459 189.293 80.2517 187.603 79.3759C181.944 76.5304 181.98 78.9313 180.876 83.6797C180.609 84.8179 180.342 85.9561 180.093 87.1121C179.653 88.2134 179.054 89.244 178.313 90.171C177.31 91.5188 176.022 92.6299 174.541 93.4255C171.602 94.7118 168.312 94.9565 165.215 94.1191H164.877C161.745 93.5678 158.631 92.892 155.498 92.3406C146.6 90.5622 136.26 88.9794 127.398 91.9494C126.704 92.1806 125.992 92.4473 125.316 92.7497C127.752 89.7565 129.813 86.4778 131.455 82.9861C133.926 77.7019 135.514 72.0485 136.154 66.251C137.37 54.3118 134.665 42.3013 128.448 32.034C122.361 21.7725 112.894 12.4713 101.611 8.13189C89.6516 3.5791 76.0196 7.3316 65.0214 12.8625C63.0104 13.8762 61.035 14.9966 59.1308 16.206C50.5796 21.6349 43.3112 28.856 37.8284 37.3693C37.5032 37.5663 37.1883 37.78 36.8852 38.0095C36.7851 38.1152 36.7293 38.2553 36.7293 38.4008C36.7293 38.5463 36.7851 38.6864 36.8852 38.7921C36.8034 38.8382 36.7357 38.9059 36.6895 38.9877C36.2179 39.6613 35.9361 40.4491 35.8735 41.2688C35.8108 42.0884 35.9697 42.9099 36.3335 43.6472C36.2782 43.7093 36.2358 43.7818 36.209 43.8606C34.4293 48.9825 28.6811 50.7787 23.7515 50.7076C20.6816 50.5709 17.6251 50.2203 14.6041 49.6583C12.5575 49.3737 10.244 48.9291 8.41094 50.174C4.85166 52.6105 5.99063 57.4478 7.85925 60.5423C10.1761 64.424 13.3545 67.7218 17.149 70.1814C18.8102 71.3239 20.6102 72.2502 22.5057 72.938C20.7798 73.5749 19.0922 74.3112 17.4515 75.1432C16.6047 75.4951 15.8463 76.03 15.2309 76.7096C14.6155 77.3891 14.1583 78.1964 13.8922 79.0735C13.787 79.8668 13.9266 80.6733 14.2923 81.3851C14.658 82.097 15.2325 82.6804 15.9388 83.0572C17.9649 83.9005 20.2172 84.0322 22.3278 83.4307C27.4887 82.6482 32.4361 83.6975 37.4369 84.7645L38.1488 84.9601C39.582 85.3245 41.0491 85.539 42.5267 85.6004C45.3982 85.6802 48.2707 85.4837 51.1046 85.0135C54.5037 93.9057 49.3249 103.74 44.5021 111.245C41.6709 115.299 39.1315 119.548 36.903 123.961C34.9231 128.221 33.5397 132.733 32.7921 137.371C31.3401 146.115 32.1419 155.085 35.1218 163.433C38.1017 171.782 43.1614 179.234 49.8232 185.086C56.868 191.44 65.6236 195.589 75.0052 197.019C75.0885 197.022 75.1715 197.007 75.2486 196.975C75.3257 196.944 75.3952 196.896 75.4524 196.836C75.5096 196.775 75.5533 196.703 75.5805 196.624C75.6078 196.545 75.6179 196.462 75.6103 196.379C92.9796 197.351 110.367 197.541 127.772 196.948C134.356 196.717 140.959 196.379 147.543 195.934C150.373 195.739 153.203 195.525 156.015 195.294C160.054 194.956 164.076 194.6 168.116 194.174L170.252 193.942C174.345 193.631 178.369 192.714 182.193 191.221C189.312 188.198 194.651 181.796 198.851 175.518C203.105 168.987 206.189 161.765 207.962 154.177C212.127 137.424 209.92 119.64 204.172 103.456ZM37.0988 40.6416C37.2508 40.6927 37.4145 40.698 37.5695 40.6569C37.7246 40.6158 37.8641 40.5301 37.9708 40.4104L38.0776 40.2682C38.5225 39.5034 39.003 38.7565 39.5013 38.0095C41.1642 37.2582 43.0084 37.0011 44.8136 37.2692C46.6187 37.5373 48.3085 38.3191 49.6809 39.5212C49.7856 39.6079 49.9115 39.6652 50.0458 39.6871C50.18 39.709 50.3176 39.6948 50.4445 39.6459C50.5714 39.597 50.683 39.5151 50.7677 39.4088C50.8524 39.3025 50.9073 39.1756 50.9266 39.041C51.045 39.0317 51.1591 38.993 51.2587 38.9284C51.3582 38.8638 51.44 38.7753 51.4966 38.671C51.5532 38.5667 51.5828 38.45 51.5827 38.3313C51.5826 38.2127 51.5529 38.096 51.4961 37.9918C50.3571 35.5909 54.0766 35.8221 55.4113 35.8754L60.2519 36.1066L70.2535 36.5868C76.5891 36.8891 82.9246 37.2448 89.2779 37.4049C89.2779 37.7843 89.3135 38.1577 89.3847 38.5253C89.3665 38.6193 89.3665 38.7159 89.3847 38.8098C89.2245 44.3052 89.3847 49.8361 88.9754 55.3315C88.886 58.1476 88.1666 60.908 86.8701 63.4099C85.5736 65.9119 83.7329 68.092 81.4831 69.7901C72.2112 76.3703 59.3799 72.8312 53.2757 63.6545C49.9288 58.3079 48.5565 51.9607 49.3961 45.7102C49.3961 45.1233 48.4707 44.9988 48.3639 45.5679C48.2571 46.137 48.2038 46.5638 48.1504 47.0795C47.1878 45.3358 45.6454 43.9832 43.7902 43.2559C41.7382 42.412 39.4356 42.412 37.3835 43.2559C37.3835 43.1136 37.259 42.9892 37.2056 42.8647C36.9198 42.157 36.8822 41.3734 37.0988 40.6416ZM206.361 153.803C204.165 163.229 199.911 172.053 193.903 179.644C190.592 184.089 186.2 187.615 181.143 189.888L179.986 190.314C176.467 191.401 172.838 192.093 169.166 192.377C164.847 192.84 160.517 193.249 156.175 193.605C147.454 194.328 138.728 194.861 129.996 195.205L125.565 195.365C107.626 195.934 89.6813 195.721 71.7306 194.725C64.6772 192.792 58.0778 189.479 52.3147 184.979L51.2292 184.072C44.9468 178.711 40.1074 171.863 37.1522 164.154C35.5785 159.984 34.5613 155.625 34.1268 151.189C33.6271 146.19 33.861 141.146 34.8208 136.215C35.7122 131.521 37.2766 126.981 39.4657 122.734C41.7792 118.306 44.8046 114.233 47.3495 109.983C48.9757 107.43 50.3751 104.741 51.5317 101.944C53.836 96.3923 54.322 90.2538 52.9198 84.4088C52.119 81.6167 50.2681 83.2529 47.9012 83.5196C45.9465 83.7475 43.9772 83.8248 42.0106 83.7508C40.9344 83.6809 39.8642 83.5383 38.8072 83.324L36.2268 82.7727L34.9276 82.5237C32.247 81.9428 29.5186 81.6095 26.7769 81.5278C24.6988 81.6021 22.6289 81.8279 20.5837 82.2036C18.6439 82.4703 14.8532 82.2036 15.2448 79.2692C15.5117 77.4907 17.7007 76.3525 19.2312 75.7123C20.7617 75.0721 22.6659 74.1828 24.4099 73.4359C26.5554 73.9606 28.7958 73.9606 30.9412 73.4359C31.0864 73.3868 31.2099 73.2887 31.2904 73.1584C31.3709 73.0281 31.4034 72.8738 31.3823 72.7221C31.3612 72.5704 31.2879 72.4308 31.1749 72.3274C31.0619 72.224 30.9163 72.1631 30.7633 72.1554C29.0086 72.1957 27.2534 72.1006 25.5133 71.8709C25.4156 71.8356 25.3085 71.8356 25.2108 71.8709C24.3444 71.7037 23.4933 71.4658 22.6659 71.1595C19.9313 70.1985 17.4019 68.7326 15.2092 66.8379C11.899 64.0458 4.53132 56.5764 8.58891 52.0058C9.17934 51.4849 9.89135 51.1207 10.6595 50.9467C11.4276 50.7727 12.2271 50.7944 12.9846 51.0099C14.7643 51.2055 16.5439 51.5256 18.3236 51.7746C21.1991 52.266 24.1313 52.3319 27.026 51.9702C28.9616 51.7292 30.8191 51.0597 32.4631 50.0106C34.1071 48.9615 35.4962 47.5592 36.5293 45.9058C36.7807 45.4653 37.0007 45.0077 37.1878 44.5364H37.4547C38.426 44.1294 39.4732 43.9346 40.5261 43.9653C41.5789 43.996 42.613 44.2513 43.5589 44.7142C45.2532 45.635 46.6069 47.0751 47.4207 48.8224C47.4739 48.9244 47.5569 49.0079 47.6585 49.0619C47.7602 49.1159 47.8758 49.1378 47.9902 49.1247C47.6888 54.3114 49.0268 59.4614 51.8148 63.8465C54.6029 68.2316 58.6999 71.6297 63.5265 73.5604C74.2044 77.5263 86.8042 71.8887 89.8474 60.6668C90.655 57.1089 91.0255 53.4659 90.9508 49.8183C91.0398 45.5145 91.2177 41.1929 91.1821 36.8891C91.1877 36.7795 91.1696 36.6699 91.1291 36.5679C91.0885 36.4658 91.0265 36.3737 90.9471 36.2978C90.8678 36.2219 90.773 36.1639 90.6692 36.1278C90.5654 36.0918 90.4551 36.0785 90.3457 36.0888C90.2211 36.0125 90.0815 35.964 89.9364 35.9466C81.4297 35.3241 72.9052 35.0218 64.3807 34.6127L58.1698 34.3104C56.398 34.1019 54.6104 34.0602 52.8308 34.1859C51.2825 34.3993 49.2715 36.0533 49.5919 37.6183C48.3217 36.7709 46.8866 36.2013 45.3807 35.947C43.8749 35.6926 42.3322 35.7591 40.8538 36.1422C49.5618 23.7238 62.1798 14.5766 76.6958 10.1593C81.0125 8.78889 85.4983 8.0228 90.0254 7.88291C91.6927 7.86259 93.359 7.97558 95.0084 8.22081C95.4711 8.29195 95.9338 8.38087 96.3965 8.48758C107.911 10.8885 117.912 19.7984 124.497 29.2063C125.904 31.2098 127.182 33.3007 128.323 35.4664C131.351 41.1429 133.357 47.3071 134.249 53.6775C134.606 56.1807 134.767 58.7078 134.73 61.2359C134.518 73.6222 129.835 85.5149 121.543 94.7237L120.973 95.115C120.873 95.1831 120.789 95.2727 120.727 95.3773C120.666 95.4818 120.628 95.5988 120.617 95.7197L120.368 96.0042C120.267 96.1307 120.216 96.2899 120.225 96.4515C120.234 96.613 120.303 96.7656 120.417 96.88C120.532 96.9945 120.684 97.0627 120.846 97.0717C121.008 97.0808 121.167 97.03 121.294 96.929L121.756 96.5022C131.455 90.9535 142.133 91.5048 152.793 93.4788C158.132 94.4748 163.631 96.1109 169.077 96.2532C177.78 96.4666 181.339 89.2817 183.065 82.0257C183.368 80.7986 183.421 79.7671 185.058 80.2473C188.222 81.4403 191.002 83.4686 193.102 86.1161C197.907 91.5759 200.666 98.7252 202.979 105.519C203.567 107.297 204.118 109.076 204.617 110.854C205.293 113.237 205.898 115.656 206.396 118.092C206.404 118.139 206.404 118.188 206.396 118.235C209 129.949 208.987 142.094 206.361 153.803Z" stroke="black" stroke-width="4" mask="url(#path-7-outside-1)"/>
<path d="M174.856 142.76C174.891 142.864 174.939 142.963 175 143.054C176.489 146.377 177.284 149.969 177.337 153.611C177.385 156.968 176.801 160.303 175.618 163.44C169.18 161.151 162.344 160.948 155.573 161.557C150.721 161.993 145.824 162.857 141.111 163.688C138.961 164.067 136.849 164.439 134.797 164.761C126.247 166.097 116.131 166.694 107.596 164.399C99.1212 162.12 92.276 157.023 89.958 146.923L89.9581 146.923L89.9562 146.915C89.844 146.445 89.5451 146.073 89.1325 145.875C88.7488 145.691 88.3386 145.69 88 145.783C87.6606 145.876 87.3145 146.085 87.0774 146.428C86.8266 146.791 86.7386 147.247 86.8562 147.709C89.9444 160.555 102.225 167.985 114.374 169.797L114.375 169.798C123.074 171.084 132.018 169.604 140.489 168.202C140.863 168.14 141.235 168.078 141.607 168.017C153.669 166.109 163.972 165.54 175.765 168.578C176.237 168.726 176.745 168.715 177.21 168.545C177.499 168.439 177.762 168.275 177.983 168.066C178.377 168.017 178.758 167.883 179.099 167.671C179.598 167.362 179.987 166.902 180.208 166.358L180.209 166.357C181.848 162.323 182.425 157.936 181.883 153.616C181.346 149.33 179.727 145.253 177.178 141.766C177.125 141.665 177.058 141.57 176.978 141.486L176.978 141.486C176.847 141.346 176.685 141.238 176.506 141.17L176.506 141.17C176.327 141.102 176.135 141.075 175.944 141.092C175.753 141.109 175.568 141.169 175.404 141.267C175.24 141.366 175.1 141.501 174.995 141.661C174.89 141.822 174.823 142.004 174.799 142.194C174.775 142.385 174.794 142.578 174.856 142.76Z" fill="#0A0A0A" stroke="black" stroke-width="2"/>
</svg>
