<svg width="129" height="42" viewBox="0 0 129 42" fill="none" xmlns="http://www.w3.org/2000/svg">
<mask id="path-1-outside-1" maskUnits="userSpaceOnUse" x="0" y="0" width="129" height="42" fill="black">
<rect fill="white" width="129" height="42"/>
<path d="M28.3648 19.0292C28.3648 19.7057 28.2566 20.5446 28.0401 21.5458C27.9589 21.8705 27.7425 22.6958 27.3907 24.0218C27.2013 24.6441 26.5518 25.7806 25.4424 27.4313C24.9824 28.1078 24.7524 28.5678 24.7524 28.8113C24.7524 29.2443 25.0771 29.7449 25.7265 30.3131C27.1607 31.5579 27.8778 32.6403 27.8778 33.5603C27.8778 34.1286 27.5125 34.7103 26.7818 35.3056C25.7536 36.1445 24.36 36.5639 22.6011 36.5639C21.9787 36.5639 21.3428 36.2257 20.6934 35.5492C20.2334 35.0621 19.7869 34.5615 19.354 34.0474C19.1375 34.2639 18.461 34.6427 17.3245 35.1839C15.8633 35.8874 14.6997 36.2392 13.8338 36.2392C11.4525 36.2392 9.4907 35.2515 7.9483 33.2762C6.64943 31.5985 6 29.8125 6 27.9184V25.7265C6 25.3206 6.20295 24.4412 6.60884 23.0882C6.93356 22.0329 7.36651 20.9099 7.90771 19.7193C9.50423 16.1474 11.2496 13.6444 13.1438 12.2102C15.0379 10.749 17.541 10.0184 20.6528 10.0184C21.0587 10.0184 22.1411 10.4513 23.9 11.3172C25.0636 11.8584 25.9971 12.589 26.7007 13.5091C27.8101 14.9432 28.3648 16.7833 28.3648 19.0292ZM22.5199 21.5052C22.5199 20.5581 22.2899 19.5163 21.8299 18.3798C21.2075 16.8103 20.3822 16.0256 19.354 16.0256C19.1375 16.0256 18.7045 16.1203 18.0551 16.3097C17.4057 16.4721 16.9998 16.6209 16.8374 16.7562C16.2421 17.2974 15.6603 18.1363 15.0921 19.2728C14.5509 20.3822 14.2803 21.3293 14.2803 22.114C14.2803 23.1423 14.4291 23.9135 14.7268 24.4277C15.0244 24.9418 15.295 25.1989 15.5385 25.1989C15.9174 25.1989 16.1068 25.0094 16.1068 24.6306C16.1068 24.4141 16.0391 24.1435 15.9038 23.8188C15.7685 23.4941 15.7009 23.2506 15.7009 23.0882C15.7009 22.98 15.7415 22.8041 15.8227 22.5605C15.9309 22.317 16.1609 22.0058 16.5127 21.627C17.0809 21.0587 17.6898 20.7746 18.3392 20.7746C19.124 20.7746 19.7328 21.1399 20.1657 21.8705C20.4905 22.4117 20.7205 23.21 20.8558 24.2653L21.0993 24.3465C21.5052 24.2382 21.8435 23.8594 22.114 23.21C22.3846 22.5335 22.5199 21.9652 22.5199 21.5052Z"/>
<path d="M49.3896 25.9701C49.3896 27.8101 49.1055 29.2443 48.5372 30.2725C47.996 31.3008 46.9677 32.3967 45.4524 33.5603C44.2077 34.5074 42.8141 35.1839 41.2717 35.5898C40.0269 35.9145 38.6063 36.0769 37.0098 36.0769C34.1414 36.0769 32.1796 35.2651 31.1243 33.6415C30.5019 32.6673 30.1907 31.3143 30.1907 29.5825C30.1907 28.6354 30.5154 26.8766 31.1649 24.3059C31.4896 23.0341 31.652 21.9246 31.652 20.9775C31.652 20.0305 31.5572 18.9481 31.3678 17.7304C31.1243 16.4586 30.8943 15.1868 30.6778 13.915C30.6778 12.5079 30.9484 11.3172 31.4896 10.3431C32.139 9.17951 33.0591 8.59773 34.2497 8.59773C35.7921 8.59773 36.9015 8.97657 37.578 9.73424C38.0651 10.3025 38.4439 11.2902 38.7145 12.6973C38.7957 13.1843 38.8363 13.6985 38.8363 14.2397C38.8363 14.5103 38.8228 14.7673 38.7957 15.0109C38.7957 15.2544 38.7957 15.4844 38.7957 15.7009C38.7957 16.5939 38.4845 18.0145 37.8622 19.9628C37.2398 21.9111 36.9286 23.2506 36.9286 23.9812C36.9286 24.6847 37.0774 25.4153 37.3751 26.173C37.781 27.2013 38.2951 27.7154 38.9175 27.7154C39.7834 27.4989 40.4328 27.2419 40.8658 26.9442C42.1646 25.9971 42.8141 24.4682 42.8141 22.3576C42.8141 21.9246 42.787 21.5999 42.7329 21.3834C42.5976 20.8422 42.5299 20.4905 42.5299 20.3281C42.3135 19.9493 42.0835 19.354 41.8399 18.5422C41.6235 17.7033 41.4476 16.5668 41.3123 15.1326C41.2852 14.835 41.2717 14.4697 41.2717 14.0367C41.2717 13.6038 41.2987 12.9814 41.3529 12.1696C41.434 11.3578 42.0564 10.4919 43.22 9.57188C44.1941 8.78715 45.1006 8.39478 45.9395 8.39478C47.1301 8.39478 47.9689 8.8548 48.456 9.77483C48.8078 10.4513 48.9837 11.4255 48.9837 12.6973C48.9837 13.1843 48.8755 14.0097 48.659 15.1732C48.4696 16.3368 48.3748 17.3245 48.3748 18.1363C48.3748 19.0292 48.5372 20.0169 48.8619 21.0993C49.2137 22.1546 49.3896 22.98 49.3896 23.5753C49.3896 23.7917 49.4031 24.0218 49.4302 24.2653C49.4572 24.5088 49.4708 24.6847 49.4708 24.793C49.4708 24.9824 49.4572 25.1989 49.4302 25.4424C49.4031 25.6589 49.3896 25.8348 49.3896 25.9701Z"/>
<path d="M75.6415 28.3242C75.6415 30.1372 74.7891 31.7338 73.0844 33.1138C71.6231 34.3044 70.2972 34.8998 69.1066 34.8998C67.8348 34.8998 66.9283 34.4397 66.3871 33.5197C66.0082 32.8703 65.8188 31.9638 65.8188 30.8002C65.8188 30.5026 65.8188 30.232 65.8188 29.9884C65.8188 29.7178 65.8324 29.4608 65.8594 29.2172C65.8594 28.5948 65.7106 28.0401 65.4129 27.553C65.007 26.8766 64.3847 26.5383 63.5458 26.5383C62.734 26.5383 62.0846 27.2824 61.5975 28.7707C61.2187 29.9072 61.0293 31.0167 61.0293 32.0991C61.0293 32.3156 60.8534 32.7214 60.5016 33.3168C59.5816 34.8862 58.4586 35.8333 57.1327 36.158H54.5349C53.182 36.0227 52.1807 35.468 51.5313 34.4939C50.9901 33.655 50.7195 32.5862 50.7195 31.2873C50.7195 29.2849 51.6531 27.4177 53.5202 25.6859C55.4144 23.927 56.3615 22.2764 56.3615 20.734C56.2262 19.6787 56.0909 18.6639 55.9556 17.6898C55.8473 16.6886 55.7932 15.8227 55.7932 15.0921C55.7932 12.792 56.5238 10.8031 57.9851 9.1254C59.4463 7.4477 61.2728 6.60884 63.4646 6.60884C65.4671 6.60884 66.9147 7.46122 67.8077 9.16598C68.4842 10.4378 68.8225 12.102 68.8225 14.1585C68.8225 15.8903 69.4042 17.6898 70.5678 19.5569C71.6502 21.0723 72.7596 22.6282 73.8962 24.2247C75.0597 25.8212 75.6415 27.1877 75.6415 28.3242ZM63.7082 16.5127C63.7082 16.2962 63.6541 16.1203 63.5458 15.985C63.4646 15.8497 63.2617 15.6468 62.937 15.3762L63.0587 15.5791C62.6799 15.4709 62.3281 15.5385 62.0034 15.7821C61.7058 15.9986 61.5569 16.2556 61.5569 16.5533C61.5569 16.7698 61.6516 17.0268 61.8411 17.3245C62.0305 17.6221 62.274 17.771 62.5717 17.771C63.3293 17.771 63.7082 17.3515 63.7082 16.5127Z"/>
<path d="M97.518 29.0143C97.518 31.3685 96.625 33.1544 94.8391 34.3721C93.3508 35.4004 91.5243 35.9145 89.3595 35.9145C87.2759 35.9145 85.26 35.4004 83.3117 34.3721C80.9033 33.1003 79.3745 31.382 78.725 29.2172C78.5627 28.7301 78.4138 27.7831 78.2785 26.3759C78.1703 24.9418 78.1162 24.0218 78.1162 23.6159C78.1162 22.5335 78.4815 20.964 79.2121 18.9075C79.7804 17.2839 80.5245 15.755 81.4445 14.3209C82.2834 13.022 83.474 11.8314 85.0164 10.749C86.8294 9.47717 88.5477 8.84127 90.1713 8.84127C92.0925 8.84127 93.4996 9.19305 94.3926 9.8966C95.2856 10.5731 95.7321 11.5337 95.7321 12.7785C95.7321 13.9961 95.3262 14.8485 94.5144 15.3356C93.9461 15.6874 93.1073 15.8633 91.9978 15.8633C91.5107 15.8633 91.0372 15.8497 90.5772 15.8227C90.1442 15.7956 89.9142 15.7821 89.8872 15.7821C89.0754 15.9715 88.0877 16.7968 86.9241 18.258C85.7606 19.6922 85.1788 20.9911 85.1788 22.1546C85.1788 23.6159 85.5982 24.9418 86.437 26.1324C87.303 27.296 88.1959 27.8778 89.116 27.8778C89.6842 27.8778 90.3336 27.6342 91.0643 27.1472C92.769 26.0106 93.892 25.4424 94.4332 25.4424C95.4073 25.4424 96.1921 25.8889 96.7874 26.7818C97.2745 27.5125 97.518 28.2566 97.518 29.0143Z"/>
<path d="M108.981 27.3501C109.143 27.7831 109.265 28.1348 109.346 28.4054C109.617 29.2984 109.752 29.9749 109.752 30.4349C109.752 32.0585 108.995 33.4926 107.479 34.7374C106.18 35.7927 105.003 36.3204 103.948 36.3204C101.783 36.3204 100.322 35.7927 99.5643 34.7374C99.1313 34.1421 98.9148 33.2491 98.9148 32.0585C98.9148 30.949 99.4155 29.3931 100.417 27.3907C101.445 25.3883 101.959 23.5482 101.959 21.8705C101.959 21.0858 101.81 19.841 101.513 18.1363C101.215 16.4315 100.904 14.6456 100.579 12.7785C100.579 11.5608 100.971 10.3701 101.756 9.20658C102.893 7.50181 104.57 6.64943 106.789 6.64943C107.817 6.64943 108.71 6.94709 109.468 7.5424C110.226 8.13772 110.605 8.84127 110.605 9.65306C110.605 10.2213 110.388 10.9249 109.955 11.7637C109.522 12.6026 109.089 13.4549 108.656 14.3209C108.656 14.6185 108.832 14.7673 109.184 14.7673C109.509 14.7673 109.874 14.5644 110.28 14.1585C110.388 14.0503 110.699 13.685 111.213 13.0626C111.728 12.4131 112.215 11.7908 112.675 11.1955C113.243 10.519 114.082 9.74777 115.191 8.88186C116.409 7.90771 117.099 7.36652 117.261 7.25828C118.533 6.41943 119.67 6 120.671 6C121.645 6 122.376 6.32472 122.863 6.97415C123.35 7.59652 123.593 8.39478 123.593 9.36893C123.593 10.4513 123.363 11.3713 122.903 12.129C122.335 13.0761 121.32 13.915 119.859 14.6456C118.344 15.1326 117.261 15.498 116.612 15.7415C115.448 16.2015 114.867 16.9998 114.867 18.1363C114.867 19.841 115.475 21.3564 116.693 22.6823C118.75 24.9012 120.089 26.5518 120.711 27.6342C120.982 28.1213 121.158 28.5543 121.239 28.9331C121.347 29.2849 121.401 29.6366 121.401 29.9884C121.401 30.4214 121.361 30.7867 121.28 31.0843C121.199 31.382 121.131 31.6391 121.077 31.8555C120.86 32.3967 120.657 32.7756 120.468 32.992C120.143 33.3979 119.656 33.7903 119.007 34.1691C118.601 34.4127 118.06 34.6156 117.383 34.778C116.707 34.9133 116.247 34.9809 116.003 34.9809C114.704 34.9809 113.771 34.4397 113.202 33.3574C112.769 32.5456 112.553 31.4767 112.553 30.1508C112.553 28.2566 112.255 26.6736 111.66 25.4018C111.092 24.13 110.334 23.4941 109.387 23.4941C109.225 23.6835 109.103 23.8323 109.022 23.9406C108.778 24.3194 108.656 24.6577 108.656 24.9553C108.656 25.28 108.656 25.6453 108.656 26.0512C108.683 26.4301 108.792 26.863 108.981 27.3501Z"/>
</mask>
<path d="M28.3648 19.0292C28.3648 19.7057 28.2566 20.5446 28.0401 21.5458C27.9589 21.8705 27.7425 22.6958 27.3907 24.0218C27.2013 24.6441 26.5518 25.7806 25.4424 27.4313C24.9824 28.1078 24.7524 28.5678 24.7524 28.8113C24.7524 29.2443 25.0771 29.7449 25.7265 30.3131C27.1607 31.5579 27.8778 32.6403 27.8778 33.5603C27.8778 34.1286 27.5125 34.7103 26.7818 35.3056C25.7536 36.1445 24.36 36.5639 22.6011 36.5639C21.9787 36.5639 21.3428 36.2257 20.6934 35.5492C20.2334 35.0621 19.7869 34.5615 19.354 34.0474C19.1375 34.2639 18.461 34.6427 17.3245 35.1839C15.8633 35.8874 14.6997 36.2392 13.8338 36.2392C11.4525 36.2392 9.4907 35.2515 7.9483 33.2762C6.64943 31.5985 6 29.8125 6 27.9184V25.7265C6 25.3206 6.20295 24.4412 6.60884 23.0882C6.93356 22.0329 7.36651 20.9099 7.90771 19.7193C9.50423 16.1474 11.2496 13.6444 13.1438 12.2102C15.0379 10.749 17.541 10.0184 20.6528 10.0184C21.0587 10.0184 22.1411 10.4513 23.9 11.3172C25.0636 11.8584 25.9971 12.589 26.7007 13.5091C27.8101 14.9432 28.3648 16.7833 28.3648 19.0292ZM22.5199 21.5052C22.5199 20.5581 22.2899 19.5163 21.8299 18.3798C21.2075 16.8103 20.3822 16.0256 19.354 16.0256C19.1375 16.0256 18.7045 16.1203 18.0551 16.3097C17.4057 16.4721 16.9998 16.6209 16.8374 16.7562C16.2421 17.2974 15.6603 18.1363 15.0921 19.2728C14.5509 20.3822 14.2803 21.3293 14.2803 22.114C14.2803 23.1423 14.4291 23.9135 14.7268 24.4277C15.0244 24.9418 15.295 25.1989 15.5385 25.1989C15.9174 25.1989 16.1068 25.0094 16.1068 24.6306C16.1068 24.4141 16.0391 24.1435 15.9038 23.8188C15.7685 23.4941 15.7009 23.2506 15.7009 23.0882C15.7009 22.98 15.7415 22.8041 15.8227 22.5605C15.9309 22.317 16.1609 22.0058 16.5127 21.627C17.0809 21.0587 17.6898 20.7746 18.3392 20.7746C19.124 20.7746 19.7328 21.1399 20.1657 21.8705C20.4905 22.4117 20.7205 23.21 20.8558 24.2653L21.0993 24.3465C21.5052 24.2382 21.8435 23.8594 22.114 23.21C22.3846 22.5335 22.5199 21.9652 22.5199 21.5052Z" fill="#0A0A0A"/>
<path d="M49.3896 25.9701C49.3896 27.8101 49.1055 29.2443 48.5372 30.2725C47.996 31.3008 46.9677 32.3967 45.4524 33.5603C44.2077 34.5074 42.8141 35.1839 41.2717 35.5898C40.0269 35.9145 38.6063 36.0769 37.0098 36.0769C34.1414 36.0769 32.1796 35.2651 31.1243 33.6415C30.5019 32.6673 30.1907 31.3143 30.1907 29.5825C30.1907 28.6354 30.5154 26.8766 31.1649 24.3059C31.4896 23.0341 31.652 21.9246 31.652 20.9775C31.652 20.0305 31.5572 18.9481 31.3678 17.7304C31.1243 16.4586 30.8943 15.1868 30.6778 13.915C30.6778 12.5079 30.9484 11.3172 31.4896 10.3431C32.139 9.17951 33.0591 8.59773 34.2497 8.59773C35.7921 8.59773 36.9015 8.97657 37.578 9.73424C38.0651 10.3025 38.4439 11.2902 38.7145 12.6973C38.7957 13.1843 38.8363 13.6985 38.8363 14.2397C38.8363 14.5103 38.8228 14.7673 38.7957 15.0109C38.7957 15.2544 38.7957 15.4844 38.7957 15.7009C38.7957 16.5939 38.4845 18.0145 37.8622 19.9628C37.2398 21.9111 36.9286 23.2506 36.9286 23.9812C36.9286 24.6847 37.0774 25.4153 37.3751 26.173C37.781 27.2013 38.2951 27.7154 38.9175 27.7154C39.7834 27.4989 40.4328 27.2419 40.8658 26.9442C42.1646 25.9971 42.8141 24.4682 42.8141 22.3576C42.8141 21.9246 42.787 21.5999 42.7329 21.3834C42.5976 20.8422 42.5299 20.4905 42.5299 20.3281C42.3135 19.9493 42.0835 19.354 41.8399 18.5422C41.6235 17.7033 41.4476 16.5668 41.3123 15.1326C41.2852 14.835 41.2717 14.4697 41.2717 14.0367C41.2717 13.6038 41.2987 12.9814 41.3529 12.1696C41.434 11.3578 42.0564 10.4919 43.22 9.57188C44.1941 8.78715 45.1006 8.39478 45.9395 8.39478C47.1301 8.39478 47.9689 8.8548 48.456 9.77483C48.8078 10.4513 48.9837 11.4255 48.9837 12.6973C48.9837 13.1843 48.8755 14.0097 48.659 15.1732C48.4696 16.3368 48.3748 17.3245 48.3748 18.1363C48.3748 19.0292 48.5372 20.0169 48.8619 21.0993C49.2137 22.1546 49.3896 22.98 49.3896 23.5753C49.3896 23.7917 49.4031 24.0218 49.4302 24.2653C49.4572 24.5088 49.4708 24.6847 49.4708 24.793C49.4708 24.9824 49.4572 25.1989 49.4302 25.4424C49.4031 25.6589 49.3896 25.8348 49.3896 25.9701Z" fill="#0A0A0A"/>
<path d="M75.6415 28.3242C75.6415 30.1372 74.7891 31.7338 73.0844 33.1138C71.6231 34.3044 70.2972 34.8998 69.1066 34.8998C67.8348 34.8998 66.9283 34.4397 66.3871 33.5197C66.0082 32.8703 65.8188 31.9638 65.8188 30.8002C65.8188 30.5026 65.8188 30.232 65.8188 29.9884C65.8188 29.7178 65.8324 29.4608 65.8594 29.2172C65.8594 28.5948 65.7106 28.0401 65.4129 27.553C65.007 26.8766 64.3847 26.5383 63.5458 26.5383C62.734 26.5383 62.0846 27.2824 61.5975 28.7707C61.2187 29.9072 61.0293 31.0167 61.0293 32.0991C61.0293 32.3156 60.8534 32.7214 60.5016 33.3168C59.5816 34.8862 58.4586 35.8333 57.1327 36.158H54.5349C53.182 36.0227 52.1807 35.468 51.5313 34.4939C50.9901 33.655 50.7195 32.5862 50.7195 31.2873C50.7195 29.2849 51.6531 27.4177 53.5202 25.6859C55.4144 23.927 56.3615 22.2764 56.3615 20.734C56.2262 19.6787 56.0909 18.6639 55.9556 17.6898C55.8473 16.6886 55.7932 15.8227 55.7932 15.0921C55.7932 12.792 56.5238 10.8031 57.9851 9.1254C59.4463 7.4477 61.2728 6.60884 63.4646 6.60884C65.4671 6.60884 66.9147 7.46122 67.8077 9.16598C68.4842 10.4378 68.8225 12.102 68.8225 14.1585C68.8225 15.8903 69.4042 17.6898 70.5678 19.5569C71.6502 21.0723 72.7596 22.6282 73.8962 24.2247C75.0597 25.8212 75.6415 27.1877 75.6415 28.3242ZM63.7082 16.5127C63.7082 16.2962 63.6541 16.1203 63.5458 15.985C63.4646 15.8497 63.2617 15.6468 62.937 15.3762L63.0587 15.5791C62.6799 15.4709 62.3281 15.5385 62.0034 15.7821C61.7058 15.9986 61.5569 16.2556 61.5569 16.5533C61.5569 16.7698 61.6516 17.0268 61.8411 17.3245C62.0305 17.6221 62.274 17.771 62.5717 17.771C63.3293 17.771 63.7082 17.3515 63.7082 16.5127Z" fill="#0A0A0A"/>
<path d="M97.518 29.0143C97.518 31.3685 96.625 33.1544 94.8391 34.3721C93.3508 35.4004 91.5243 35.9145 89.3595 35.9145C87.2759 35.9145 85.26 35.4004 83.3117 34.3721C80.9033 33.1003 79.3745 31.382 78.725 29.2172C78.5627 28.7301 78.4138 27.7831 78.2785 26.3759C78.1703 24.9418 78.1162 24.0218 78.1162 23.6159C78.1162 22.5335 78.4815 20.964 79.2121 18.9075C79.7804 17.2839 80.5245 15.755 81.4445 14.3209C82.2834 13.022 83.474 11.8314 85.0164 10.749C86.8294 9.47717 88.5477 8.84127 90.1713 8.84127C92.0925 8.84127 93.4996 9.19305 94.3926 9.8966C95.2856 10.5731 95.7321 11.5337 95.7321 12.7785C95.7321 13.9961 95.3262 14.8485 94.5144 15.3356C93.9461 15.6874 93.1073 15.8633 91.9978 15.8633C91.5107 15.8633 91.0372 15.8497 90.5772 15.8227C90.1442 15.7956 89.9142 15.7821 89.8872 15.7821C89.0754 15.9715 88.0877 16.7968 86.9241 18.258C85.7606 19.6922 85.1788 20.9911 85.1788 22.1546C85.1788 23.6159 85.5982 24.9418 86.437 26.1324C87.303 27.296 88.1959 27.8778 89.116 27.8778C89.6842 27.8778 90.3336 27.6342 91.0643 27.1472C92.769 26.0106 93.892 25.4424 94.4332 25.4424C95.4073 25.4424 96.1921 25.8889 96.7874 26.7818C97.2745 27.5125 97.518 28.2566 97.518 29.0143Z" fill="#0A0A0A"/>
<path d="M108.981 27.3501C109.143 27.7831 109.265 28.1348 109.346 28.4054C109.617 29.2984 109.752 29.9749 109.752 30.4349C109.752 32.0585 108.995 33.4926 107.479 34.7374C106.18 35.7927 105.003 36.3204 103.948 36.3204C101.783 36.3204 100.322 35.7927 99.5643 34.7374C99.1313 34.1421 98.9148 33.2491 98.9148 32.0585C98.9148 30.949 99.4155 29.3931 100.417 27.3907C101.445 25.3883 101.959 23.5482 101.959 21.8705C101.959 21.0858 101.81 19.841 101.513 18.1363C101.215 16.4315 100.904 14.6456 100.579 12.7785C100.579 11.5608 100.971 10.3701 101.756 9.20658C102.893 7.50181 104.57 6.64943 106.789 6.64943C107.817 6.64943 108.71 6.94709 109.468 7.5424C110.226 8.13772 110.605 8.84127 110.605 9.65306C110.605 10.2213 110.388 10.9249 109.955 11.7637C109.522 12.6026 109.089 13.4549 108.656 14.3209C108.656 14.6185 108.832 14.7673 109.184 14.7673C109.509 14.7673 109.874 14.5644 110.28 14.1585C110.388 14.0503 110.699 13.685 111.213 13.0626C111.728 12.4131 112.215 11.7908 112.675 11.1955C113.243 10.519 114.082 9.74777 115.191 8.88186C116.409 7.90771 117.099 7.36652 117.261 7.25828C118.533 6.41943 119.67 6 120.671 6C121.645 6 122.376 6.32472 122.863 6.97415C123.35 7.59652 123.593 8.39478 123.593 9.36893C123.593 10.4513 123.363 11.3713 122.903 12.129C122.335 13.0761 121.32 13.915 119.859 14.6456C118.344 15.1326 117.261 15.498 116.612 15.7415C115.448 16.2015 114.867 16.9998 114.867 18.1363C114.867 19.841 115.475 21.3564 116.693 22.6823C118.75 24.9012 120.089 26.5518 120.711 27.6342C120.982 28.1213 121.158 28.5543 121.239 28.9331C121.347 29.2849 121.401 29.6366 121.401 29.9884C121.401 30.4214 121.361 30.7867 121.28 31.0843C121.199 31.382 121.131 31.6391 121.077 31.8555C120.86 32.3967 120.657 32.7756 120.468 32.992C120.143 33.3979 119.656 33.7903 119.007 34.1691C118.601 34.4127 118.06 34.6156 117.383 34.778C116.707 34.9133 116.247 34.9809 116.003 34.9809C114.704 34.9809 113.771 34.4397 113.202 33.3574C112.769 32.5456 112.553 31.4767 112.553 30.1508C112.553 28.2566 112.255 26.6736 111.66 25.4018C111.092 24.13 110.334 23.4941 109.387 23.4941C109.225 23.6835 109.103 23.8323 109.022 23.9406C108.778 24.3194 108.656 24.6577 108.656 24.9553C108.656 25.28 108.656 25.6453 108.656 26.0512C108.683 26.4301 108.792 26.863 108.981 27.3501Z" fill="#0A0A0A"/>
<path d="M28.3648 19.0292C28.3648 19.7057 28.2566 20.5446 28.0401 21.5458C27.9589 21.8705 27.7425 22.6958 27.3907 24.0218C27.2013 24.6441 26.5518 25.7806 25.4424 27.4313C24.9824 28.1078 24.7524 28.5678 24.7524 28.8113C24.7524 29.2443 25.0771 29.7449 25.7265 30.3131C27.1607 31.5579 27.8778 32.6403 27.8778 33.5603C27.8778 34.1286 27.5125 34.7103 26.7818 35.3056C25.7536 36.1445 24.36 36.5639 22.6011 36.5639C21.9787 36.5639 21.3428 36.2257 20.6934 35.5492C20.2334 35.0621 19.7869 34.5615 19.354 34.0474C19.1375 34.2639 18.461 34.6427 17.3245 35.1839C15.8633 35.8874 14.6997 36.2392 13.8338 36.2392C11.4525 36.2392 9.4907 35.2515 7.9483 33.2762C6.64943 31.5985 6 29.8125 6 27.9184V25.7265C6 25.3206 6.20295 24.4412 6.60884 23.0882C6.93356 22.0329 7.36651 20.9099 7.90771 19.7193C9.50423 16.1474 11.2496 13.6444 13.1438 12.2102C15.0379 10.749 17.541 10.0184 20.6528 10.0184C21.0587 10.0184 22.1411 10.4513 23.9 11.3172C25.0636 11.8584 25.9971 12.589 26.7007 13.5091C27.8101 14.9432 28.3648 16.7833 28.3648 19.0292ZM22.5199 21.5052C22.5199 20.5581 22.2899 19.5163 21.8299 18.3798C21.2075 16.8103 20.3822 16.0256 19.354 16.0256C19.1375 16.0256 18.7045 16.1203 18.0551 16.3097C17.4057 16.4721 16.9998 16.6209 16.8374 16.7562C16.2421 17.2974 15.6603 18.1363 15.0921 19.2728C14.5509 20.3822 14.2803 21.3293 14.2803 22.114C14.2803 23.1423 14.4291 23.9135 14.7268 24.4277C15.0244 24.9418 15.295 25.1989 15.5385 25.1989C15.9174 25.1989 16.1068 25.0094 16.1068 24.6306C16.1068 24.4141 16.0391 24.1435 15.9038 23.8188C15.7685 23.4941 15.7009 23.2506 15.7009 23.0882C15.7009 22.98 15.7415 22.8041 15.8227 22.5605C15.9309 22.317 16.1609 22.0058 16.5127 21.627C17.0809 21.0587 17.6898 20.7746 18.3392 20.7746C19.124 20.7746 19.7328 21.1399 20.1657 21.8705C20.4905 22.4117 20.7205 23.21 20.8558 24.2653L21.0993 24.3465C21.5052 24.2382 21.8435 23.8594 22.114 23.21C22.3846 22.5335 22.5199 21.9652 22.5199 21.5052Z" stroke="white" stroke-width="10.5533" mask="url(#path-1-outside-1)"/>
<path d="M49.3896 25.9701C49.3896 27.8101 49.1055 29.2443 48.5372 30.2725C47.996 31.3008 46.9677 32.3967 45.4524 33.5603C44.2077 34.5074 42.8141 35.1839 41.2717 35.5898C40.0269 35.9145 38.6063 36.0769 37.0098 36.0769C34.1414 36.0769 32.1796 35.2651 31.1243 33.6415C30.5019 32.6673 30.1907 31.3143 30.1907 29.5825C30.1907 28.6354 30.5154 26.8766 31.1649 24.3059C31.4896 23.0341 31.652 21.9246 31.652 20.9775C31.652 20.0305 31.5572 18.9481 31.3678 17.7304C31.1243 16.4586 30.8943 15.1868 30.6778 13.915C30.6778 12.5079 30.9484 11.3172 31.4896 10.3431C32.139 9.17951 33.0591 8.59773 34.2497 8.59773C35.7921 8.59773 36.9015 8.97657 37.578 9.73424C38.0651 10.3025 38.4439 11.2902 38.7145 12.6973C38.7957 13.1843 38.8363 13.6985 38.8363 14.2397C38.8363 14.5103 38.8228 14.7673 38.7957 15.0109C38.7957 15.2544 38.7957 15.4844 38.7957 15.7009C38.7957 16.5939 38.4845 18.0145 37.8622 19.9628C37.2398 21.9111 36.9286 23.2506 36.9286 23.9812C36.9286 24.6847 37.0774 25.4153 37.3751 26.173C37.781 27.2013 38.2951 27.7154 38.9175 27.7154C39.7834 27.4989 40.4328 27.2419 40.8658 26.9442C42.1646 25.9971 42.8141 24.4682 42.8141 22.3576C42.8141 21.9246 42.787 21.5999 42.7329 21.3834C42.5976 20.8422 42.5299 20.4905 42.5299 20.3281C42.3135 19.9493 42.0835 19.354 41.8399 18.5422C41.6235 17.7033 41.4476 16.5668 41.3123 15.1326C41.2852 14.835 41.2717 14.4697 41.2717 14.0367C41.2717 13.6038 41.2987 12.9814 41.3529 12.1696C41.434 11.3578 42.0564 10.4919 43.22 9.57188C44.1941 8.78715 45.1006 8.39478 45.9395 8.39478C47.1301 8.39478 47.9689 8.8548 48.456 9.77483C48.8078 10.4513 48.9837 11.4255 48.9837 12.6973C48.9837 13.1843 48.8755 14.0097 48.659 15.1732C48.4696 16.3368 48.3748 17.3245 48.3748 18.1363C48.3748 19.0292 48.5372 20.0169 48.8619 21.0993C49.2137 22.1546 49.3896 22.98 49.3896 23.5753C49.3896 23.7917 49.4031 24.0218 49.4302 24.2653C49.4572 24.5088 49.4708 24.6847 49.4708 24.793C49.4708 24.9824 49.4572 25.1989 49.4302 25.4424C49.4031 25.6589 49.3896 25.8348 49.3896 25.9701Z" stroke="white" stroke-width="10.5533" mask="url(#path-1-outside-1)"/>
<path d="M75.6415 28.3242C75.6415 30.1372 74.7891 31.7338 73.0844 33.1138C71.6231 34.3044 70.2972 34.8998 69.1066 34.8998C67.8348 34.8998 66.9283 34.4397 66.3871 33.5197C66.0082 32.8703 65.8188 31.9638 65.8188 30.8002C65.8188 30.5026 65.8188 30.232 65.8188 29.9884C65.8188 29.7178 65.8324 29.4608 65.8594 29.2172C65.8594 28.5948 65.7106 28.0401 65.4129 27.553C65.007 26.8766 64.3847 26.5383 63.5458 26.5383C62.734 26.5383 62.0846 27.2824 61.5975 28.7707C61.2187 29.9072 61.0293 31.0167 61.0293 32.0991C61.0293 32.3156 60.8534 32.7214 60.5016 33.3168C59.5816 34.8862 58.4586 35.8333 57.1327 36.158H54.5349C53.182 36.0227 52.1807 35.468 51.5313 34.4939C50.9901 33.655 50.7195 32.5862 50.7195 31.2873C50.7195 29.2849 51.6531 27.4177 53.5202 25.6859C55.4144 23.927 56.3615 22.2764 56.3615 20.734C56.2262 19.6787 56.0909 18.6639 55.9556 17.6898C55.8473 16.6886 55.7932 15.8227 55.7932 15.0921C55.7932 12.792 56.5238 10.8031 57.9851 9.1254C59.4463 7.4477 61.2728 6.60884 63.4646 6.60884C65.4671 6.60884 66.9147 7.46122 67.8077 9.16598C68.4842 10.4378 68.8225 12.102 68.8225 14.1585C68.8225 15.8903 69.4042 17.6898 70.5678 19.5569C71.6502 21.0723 72.7596 22.6282 73.8962 24.2247C75.0597 25.8212 75.6415 27.1877 75.6415 28.3242ZM63.7082 16.5127C63.7082 16.2962 63.6541 16.1203 63.5458 15.985C63.4646 15.8497 63.2617 15.6468 62.937 15.3762L63.0587 15.5791C62.6799 15.4709 62.3281 15.5385 62.0034 15.7821C61.7058 15.9986 61.5569 16.2556 61.5569 16.5533C61.5569 16.7698 61.6516 17.0268 61.8411 17.3245C62.0305 17.6221 62.274 17.771 62.5717 17.771C63.3293 17.771 63.7082 17.3515 63.7082 16.5127Z" stroke="white" stroke-width="10.5533" mask="url(#path-1-outside-1)"/>
<path d="M97.518 29.0143C97.518 31.3685 96.625 33.1544 94.8391 34.3721C93.3508 35.4004 91.5243 35.9145 89.3595 35.9145C87.2759 35.9145 85.26 35.4004 83.3117 34.3721C80.9033 33.1003 79.3745 31.382 78.725 29.2172C78.5627 28.7301 78.4138 27.7831 78.2785 26.3759C78.1703 24.9418 78.1162 24.0218 78.1162 23.6159C78.1162 22.5335 78.4815 20.964 79.2121 18.9075C79.7804 17.2839 80.5245 15.755 81.4445 14.3209C82.2834 13.022 83.474 11.8314 85.0164 10.749C86.8294 9.47717 88.5477 8.84127 90.1713 8.84127C92.0925 8.84127 93.4996 9.19305 94.3926 9.8966C95.2856 10.5731 95.7321 11.5337 95.7321 12.7785C95.7321 13.9961 95.3262 14.8485 94.5144 15.3356C93.9461 15.6874 93.1073 15.8633 91.9978 15.8633C91.5107 15.8633 91.0372 15.8497 90.5772 15.8227C90.1442 15.7956 89.9142 15.7821 89.8872 15.7821C89.0754 15.9715 88.0877 16.7968 86.9241 18.258C85.7606 19.6922 85.1788 20.9911 85.1788 22.1546C85.1788 23.6159 85.5982 24.9418 86.437 26.1324C87.303 27.296 88.1959 27.8778 89.116 27.8778C89.6842 27.8778 90.3336 27.6342 91.0643 27.1472C92.769 26.0106 93.892 25.4424 94.4332 25.4424C95.4073 25.4424 96.1921 25.8889 96.7874 26.7818C97.2745 27.5125 97.518 28.2566 97.518 29.0143Z" stroke="white" stroke-width="10.5533" mask="url(#path-1-outside-1)"/>
<path d="M108.981 27.3501C109.143 27.7831 109.265 28.1348 109.346 28.4054C109.617 29.2984 109.752 29.9749 109.752 30.4349C109.752 32.0585 108.995 33.4926 107.479 34.7374C106.18 35.7927 105.003 36.3204 103.948 36.3204C101.783 36.3204 100.322 35.7927 99.5643 34.7374C99.1313 34.1421 98.9148 33.2491 98.9148 32.0585C98.9148 30.949 99.4155 29.3931 100.417 27.3907C101.445 25.3883 101.959 23.5482 101.959 21.8705C101.959 21.0858 101.81 19.841 101.513 18.1363C101.215 16.4315 100.904 14.6456 100.579 12.7785C100.579 11.5608 100.971 10.3701 101.756 9.20658C102.893 7.50181 104.57 6.64943 106.789 6.64943C107.817 6.64943 108.71 6.94709 109.468 7.5424C110.226 8.13772 110.605 8.84127 110.605 9.65306C110.605 10.2213 110.388 10.9249 109.955 11.7637C109.522 12.6026 109.089 13.4549 108.656 14.3209C108.656 14.6185 108.832 14.7673 109.184 14.7673C109.509 14.7673 109.874 14.5644 110.28 14.1585C110.388 14.0503 110.699 13.685 111.213 13.0626C111.728 12.4131 112.215 11.7908 112.675 11.1955C113.243 10.519 114.082 9.74777 115.191 8.88186C116.409 7.90771 117.099 7.36652 117.261 7.25828C118.533 6.41943 119.67 6 120.671 6C121.645 6 122.376 6.32472 122.863 6.97415C123.35 7.59652 123.593 8.39478 123.593 9.36893C123.593 10.4513 123.363 11.3713 122.903 12.129C122.335 13.0761 121.32 13.915 119.859 14.6456C118.344 15.1326 117.261 15.498 116.612 15.7415C115.448 16.2015 114.867 16.9998 114.867 18.1363C114.867 19.841 115.475 21.3564 116.693 22.6823C118.75 24.9012 120.089 26.5518 120.711 27.6342C120.982 28.1213 121.158 28.5543 121.239 28.9331C121.347 29.2849 121.401 29.6366 121.401 29.9884C121.401 30.4214 121.361 30.7867 121.28 31.0843C121.199 31.382 121.131 31.6391 121.077 31.8555C120.86 32.3967 120.657 32.7756 120.468 32.992C120.143 33.3979 119.656 33.7903 119.007 34.1691C118.601 34.4127 118.06 34.6156 117.383 34.778C116.707 34.9133 116.247 34.9809 116.003 34.9809C114.704 34.9809 113.771 34.4397 113.202 33.3574C112.769 32.5456 112.553 31.4767 112.553 30.1508C112.553 28.2566 112.255 26.6736 111.66 25.4018C111.092 24.13 110.334 23.4941 109.387 23.4941C109.225 23.6835 109.103 23.8323 109.022 23.9406C108.778 24.3194 108.656 24.6577 108.656 24.9553C108.656 25.28 108.656 25.6453 108.656 26.0512C108.683 26.4301 108.792 26.863 108.981 27.3501Z" stroke="white" stroke-width="10.5533" mask="url(#path-1-outside-1)"/>
</svg>
