<svg width="701" height="450" viewBox="0 0 701 450" fill="none" xmlns="http://www.w3.org/2000/svg">
<path d="M190.954 202.334C182.201 190.115 170.501 237.316 170.501 237.316C170.501 237.316 129.521 120.817 87.7103 131.784C45.8999 142.752 65.4771 283.44 97.4157 346.682L207.032 315.242C207.032 315.242 205.125 222.275 190.954 202.334Z" fill="#8FF7A7" stroke="#101521" stroke-miterlimit="10"/>
<path d="M185.735 265.852C186.629 270.637 194.563 289.472 207.179 315.136C245.154 392.148 325.748 530.608 387.108 535.386C468.93 541.7 492.998 378.103 492.998 378.103C495.493 355.088 500.501 334.492 509.201 319.186C551.366 244.889 659.468 153.58 785.175 199.838C981.489 271.992 915.71 746.988 915.71 746.988L567.401 746.988L567.401 503.248C555.916 568.174 506.707 661.546 399.235 665.918C241.044 672.407 88.512 327.052 88.512 327.052L185.735 265.852Z" fill="#21253C" stroke="#101521" stroke-miterlimit="10" stroke-linecap="round"/>
<path d="M191.884 126.744C190.99 123.922 189.023 121.563 186.405 120.172C183.788 118.781 180.728 118.47 177.883 119.305C153.824 126.36 79.2155 146.294 81.0902 154.704C84.2107 169.907 116.345 338.685 129.197 340.127C142.049 341.569 235.842 317.459 239.551 301.451C242.264 287.728 203.648 163.888 191.884 126.744Z" fill="#101521" stroke="#101521" stroke-miterlimit="10"/>
<path d="M185.045 138.068C184.783 137.026 184.316 136.047 183.671 135.187C183.025 134.327 182.215 133.605 181.287 133.061C180.358 132.518 179.331 132.164 178.264 132.022C177.197 131.879 176.113 131.95 175.074 132.231C158.075 137.516 117.919 150.817 114.941 159.631C111.173 170.806 144.288 302.562 153.438 303.711C162.588 304.861 217.444 285.627 219.825 273.246C221.839 262.722 193.625 166.824 185.045 138.068Z" fill="white" stroke="white" stroke-miterlimit="10"/>
<path d="M353.145 9.21093C351.599 10.8057 106.206 157.155 106.206 157.155L145.257 317.576L420.55 343.28L353.145 9.21093Z" fill="white" stroke="#101521" stroke-miterlimit="10"/>
<path d="M284.928 163.081C288.338 188.436 294.191 213.404 302.404 237.638C304.404 243.763 306.604 250.003 308.949 256.44C391.22 477.79 520.827 253.322 520.827 253.322C520.827 253.322 620.122 319.413 645.934 327.965C665.187 334.363 727.526 350.33 728.379 254.645C728.689 218.609 714.415 196.74 690.532 187.52L553.891 111.067C553.891 111.067 555.966 -12.2137 443.436 -26.6811C368.729 -36.2793 265.881 14.2125 284.928 163.081Z" fill="#8FF7A7" stroke="#101521" stroke-miterlimit="10"/>
<path d="M520.788 253.576C520.788 253.576 549.085 196.509 552.046 170.39C552.046 170.39 603.202 224.592 598.048 299.29L520.788 253.576Z" fill="#101521" stroke="#101521" stroke-miterlimit="10"/>
<path d="M514.528 194.562C519.862 200.532 522.97 209.43 541.115 207.533C566.791 204.806 589.337 176.484 593.382 149.527C597.95 119.084 580.324 69.3262 524.14 117.444" fill="#8FF7A7"/>
<path d="M514.528 194.562C519.862 200.532 522.97 209.43 541.115 207.533C566.791 204.806 589.337 176.484 593.382 149.527C597.95 119.084 580.324 69.3262 524.14 117.444" stroke="#101521" stroke-miterlimit="10" stroke-linecap="round"/>
<path d="M520.417 154.149C520.417 154.149 543.484 112.777 565.929 124.608L520.417 154.149Z" fill="#8FF7A7"/>
<path d="M520.417 154.149C520.417 154.149 543.484 112.777 565.929 124.608" stroke="#101521" stroke-miterlimit="10" stroke-linecap="round"/>
<path d="M528.782 174.172C528.782 174.172 540.892 161.114 528.436 154.993C525.964 153.718 523.103 153.414 520.418 154.142" fill="#8FF7A7"/>
<path d="M528.782 174.172C528.782 174.172 540.892 161.114 528.436 154.993C525.964 153.718 523.103 153.414 520.418 154.142" stroke="#101521" stroke-miterlimit="10" stroke-linecap="round"/>
<path d="M534.588 109.354C534.588 109.354 534.054 60.3685 490.349 51.4468C446.644 42.5252 263.321 122.725 246.198 33.6138L282.16 26.2067L238.056 -42.7659C238.056 -42.7659 327.019 -33.8197 389.116 -47.8853C451.212 -61.9509 559.119 -32.3505 558.916 97.9046L534.588 109.354Z" fill="#101521" stroke="#101521" stroke-miterlimit="10"/>
<path d="M341.623 171.075C341.623 171.075 360.618 266.292 365.934 270.346C371.631 274.762 387.287 268.842 384.332 258.054" stroke="#101521" stroke-miterlimit="10" stroke-linecap="round"/>
<path d="M420.995 254.097C420.995 254.097 426.456 280.996 403.752 284.82" stroke="#101521" stroke-miterlimit="10" stroke-linecap="round"/>
<path d="M374.005 189.561C381.858 218.514 396.001 227.322 417.915 224.988C439.829 222.655 446.46 203.431 447.6 181.605C449.968 136.791 431.522 143.599 409.395 145.9C387.268 148.202 362.943 148.61 374.005 189.561Z" fill="#101521" stroke="#101521" stroke-miterlimit="10"/>
<path d="M284.927 163.078C288.338 188.434 294.19 213.402 302.404 237.636C307.926 237.959 313.454 237.134 318.64 235.214C323.825 233.293 328.554 230.319 332.527 226.479C336.5 222.639 339.631 218.018 341.721 212.907C343.81 207.797 344.813 202.309 344.666 196.791C344.519 191.274 343.226 185.847 340.867 180.855C338.508 175.862 335.136 171.413 330.964 167.789C326.792 164.165 321.912 161.446 316.631 159.803C311.351 158.16 305.786 157.629 300.29 158.245C294.897 158.814 289.673 160.458 284.927 163.078Z" fill="#101521" stroke="#101521" stroke-miterlimit="10"/>
<path d="M369.772 165.805C369.821 166.562 369.911 167.315 370.043 168.062C371.626 181.807 378.262 194.478 388.666 203.623C392.055 206.585 396.013 208.828 400.298 210.216C404.583 211.603 409.107 212.106 413.593 211.695C417.041 211.31 420.397 210.341 423.519 208.831C428.748 206.005 433.325 202.118 436.956 197.419C440.588 192.721 443.192 187.315 444.602 181.551C446.804 173.722 447.483 165.546 446.605 157.462C446.303 154.455 445.79 151.473 445.069 148.538C443.663 141.867 440.955 135.538 437.097 129.911C433.24 124.285 428.31 119.473 422.588 115.749C416.72 112.176 409.848 110.6 403.005 111.257C398.581 111.718 394.316 113.16 390.523 115.478C382 120.947 375.681 129.238 372.677 138.895C369.727 147.54 368.735 156.731 369.772 165.805Z" fill="#FB62F6"/>
<path d="M405.685 158.997C411.757 143.211 417.871 127.431 422.29 116.267C416.422 112.694 409.55 111.118 402.708 111.776C398.283 112.236 394.018 113.678 390.225 115.997L405.545 159.063L405.685 158.997Z" fill="white"/>
<path d="M388.666 203.623C392.055 206.585 396.013 208.828 400.298 210.216C404.583 211.603 409.107 212.107 413.593 211.695C417.04 211.31 420.397 210.341 423.519 208.831L405.857 159.025C399.064 176.137 392.705 192.967 388.666 203.623Z" fill="white"/>
<path d="M405.789 158.881L444.496 181.662C446.698 173.834 447.378 165.657 446.499 157.573C446.197 154.567 445.684 151.585 444.963 148.65L405.789 158.881Z" fill="white"/>
<path d="M369.773 165.807C369.822 166.564 369.913 167.317 370.044 168.064C380.652 165.302 393.384 162.031 405.609 158.946L372.461 139.473C369.669 147.954 368.752 156.938 369.773 165.807Z" fill="white"/>
<path d="M369.772 165.805C369.821 166.562 369.911 167.315 370.043 168.062C371.626 181.807 378.262 194.478 388.666 203.623C392.055 206.585 396.013 208.828 400.298 210.216C404.583 211.603 409.107 212.106 413.593 211.695C417.041 211.31 420.397 210.341 423.519 208.831C428.748 206.005 433.325 202.118 436.956 197.419C440.588 192.721 443.192 187.315 444.602 181.551C446.804 173.722 447.483 165.546 446.605 157.462C446.303 154.455 445.79 151.473 445.069 148.538C443.663 141.867 440.955 135.538 437.097 129.911C433.24 124.285 428.31 119.473 422.588 115.749C416.72 112.176 409.848 110.6 403.005 111.257C398.581 111.718 394.316 113.16 390.523 115.478C382 120.947 375.681 129.238 372.677 138.895C369.727 147.54 368.735 156.731 369.772 165.805V165.805Z" stroke="#101521" stroke-miterlimit="10"/>
<path d="M272.401 178.336C272.445 179.094 272.535 179.848 272.673 180.594C274.14 194.12 280.212 206.735 289.875 216.334C292.775 219.308 296.294 221.61 300.184 223.078C304.074 224.546 308.24 225.143 312.386 224.827C315.58 224.548 318.684 223.621 321.507 222.104C326.319 219.154 330.466 215.241 333.688 210.612C336.909 205.983 339.134 200.739 340.223 195.209C342.142 187.353 342.669 179.222 341.781 171.184C341.477 168.187 340.992 165.212 340.33 162.273C337.783 149.097 330.418 137.336 319.666 129.277C314.481 125.712 308.217 124.054 301.943 124.585C297.93 125.023 294.084 126.433 290.741 128.693C282.864 134.399 277.243 142.682 274.857 152.098C272.323 160.599 271.488 169.514 272.401 178.336Z" fill="#FB62F6"/>
<path d="M304.858 171.923C310.173 156.242 315.537 140.524 319.384 129.405C314.199 125.84 307.935 124.182 301.661 124.713C297.647 125.151 293.802 126.561 290.459 128.821L304.717 171.989L304.858 171.923Z" fill="white"/>
<path d="M290.002 216.35C292.889 219.304 296.389 221.593 300.255 223.057C304.121 224.521 308.261 225.124 312.385 224.825C315.579 224.546 318.683 223.619 321.506 222.101L305.075 172.218C299.119 188.978 293.51 205.746 290.002 216.35Z" fill="white"/>
<path d="M304.965 171.813L340.129 194.978C342.048 187.121 342.575 178.991 341.687 170.953C341.383 167.956 340.898 164.981 340.236 162.042L304.965 171.813Z" fill="white"/>
<path d="M272.403 178.337C272.446 179.094 272.537 179.848 272.674 180.594L304.483 171.828L274.384 152.072C272.005 160.612 271.332 169.537 272.403 178.337Z" fill="white"/>
<path d="M272.401 178.336C272.445 179.094 272.535 179.848 272.673 180.594C274.14 194.12 280.212 206.735 289.875 216.334C292.775 219.308 296.294 221.611 300.184 223.078C304.074 224.546 308.24 225.143 312.386 224.827C315.58 224.548 318.684 223.621 321.507 222.103C326.319 219.154 330.466 215.241 333.688 210.612C336.909 205.983 339.134 200.739 340.223 195.209C342.142 187.353 342.669 179.222 341.781 171.184C341.477 168.187 340.992 165.212 340.33 162.273C337.783 149.097 330.418 137.336 319.666 129.277C314.481 125.712 308.217 124.054 301.943 124.585C297.93 125.023 294.084 126.433 290.741 128.693C282.864 134.399 277.243 142.682 274.857 152.098C272.323 160.599 271.488 169.514 272.401 178.336V178.336Z" stroke="#101521" stroke-miterlimit="10"/>
<path d="M97.6746 160.879L126.845 279.439" stroke="white" stroke-miterlimit="10" stroke-linecap="round"/>
<path d="M449.032 97.44C449.032 97.44 431.688 82.6761 414.817 80.7204L449.032 97.44Z" fill="#101521"/>
<path d="M449.032 97.44C449.032 97.44 431.688 82.6761 414.817 80.7204" stroke="#101521" stroke-miterlimit="10" stroke-linecap="round"/>
<path d="M339.473 108.759C339.473 108.759 322.087 93.9891 305.259 92.0398L339.473 108.759Z" fill="#101521"/>
<path d="M339.473 108.759C339.473 108.759 322.087 93.9891 305.259 92.0398" stroke="#101521" stroke-miterlimit="10" stroke-linecap="round"/>
<path d="M172.09 148.046L214.461 295.922L149.135 317.287" stroke="#101521" stroke-miterlimit="10" stroke-linecap="round"/>
<path d="M567.404 503.243C567.404 503.243 541.654 540.433 532.968 552.741C485.986 619.363 415.656 655.499 342.521 629.616C260.03 600.466 201.86 506.787 165.492 440.839C120.07 358.585 90.1199 331.156 64.1769 188.474C64.1769 188.474 51.3373 295.235 148.17 463.378C245.003 631.52 318.347 685.039 433.432 661.285C548.517 637.531 567.404 503.243 567.404 503.243Z" fill="#101521"/>
<path d="M708.171 318.733C708.171 318.733 688.141 347.997 639.239 334.516C590.337 321.036 521.023 303.071 521.023 303.071L549.599 263.304C549.599 263.304 644.245 350.219 708.171 318.733Z" fill="#101521" stroke="#101521" stroke-miterlimit="10"/>
<path d="M164.656 181.256C165.048 183.273 164.935 185.283 164.317 187.286C163.444 190.133 161.633 191.822 158.884 192.354C157.591 192.604 156.392 192.48 155.289 191.982C154.186 191.483 153.525 190.67 153.305 189.54C153.243 189.217 153.217 188.113 153.229 186.228C153.232 185.599 153.242 184.677 153.257 183.46C153.007 182.169 152.319 181.11 151.193 180.281C150.101 179.404 149.15 179.044 148.341 179.2C147.978 179.27 147.623 179.82 147.278 180.85C146.932 181.879 146.854 182.878 147.042 183.846C147.151 184.41 147.646 185.445 148.525 186.949C148.964 187.701 149.247 188.4 149.372 189.045C149.771 191.102 149.394 192.724 148.24 193.909C147.298 194.887 145.957 195.543 144.219 195.879C142.683 196.176 141.276 195.946 139.996 195.189C138.75 194.384 137.974 193.195 137.668 191.622C137.465 190.573 137.548 188.736 137.92 186.112C138.114 184.735 138.121 183.583 137.941 182.655C137.862 182.251 137.285 180.898 136.209 178.595C135.635 177.367 135.293 176.471 135.183 175.906C134.839 174.131 134.942 172.5 135.492 171.013C136.074 169.477 137.113 168.565 138.609 168.276C140.145 167.979 141.487 168.41 142.634 169.569C143.782 170.728 144.416 171.296 144.538 171.272C145.165 170.398 145.989 169.569 147.012 168.785C148.034 168.002 149.252 167.473 150.667 167.2C153.618 166.629 156.255 167.145 158.579 168.746C160.935 170.3 162.624 172.735 163.646 176.053C163.788 176.57 163.898 177.03 163.977 177.433C164.088 177.788 164.167 178.087 164.214 178.329C164.323 178.893 164.409 179.442 164.47 179.974C164.531 180.506 164.593 180.934 164.656 181.256Z" fill="#0A0A0A"/>
<path d="M169.61 210.34C170.206 213.406 169.969 216.402 168.902 219.329C167.285 223.743 164.03 226.423 159.139 227.368C155.582 228.056 152.673 227.865 150.41 226.796C148.14 225.686 146.23 223.733 144.68 220.935C144.088 220.046 143.512 219.132 142.953 218.193C142.443 217.078 142.035 215.734 141.73 214.161C140.852 209.643 141.493 205.921 143.65 202.992C145.677 200.257 148.692 198.502 152.693 197.729C155.078 197.268 157.886 197.583 161.118 198.674C164.341 199.725 166.117 201.097 166.446 202.791C166.591 202.889 166.695 202.994 166.759 203.107C167.04 203.472 167.223 203.876 167.309 204.319C167.677 204.918 167.965 205.427 168.172 205.847C168.81 207.189 169.289 208.687 169.61 210.34ZM156.47 208.11C156.368 207.585 155.943 207.124 155.195 206.724C154.487 206.317 153.971 206.145 153.647 206.207C152.758 206.379 152.082 206.782 151.617 207.416C150.958 208.338 150.695 209.143 150.828 209.828C150.961 210.514 151.45 211.089 152.295 211.554C153.132 211.978 153.874 212.127 154.521 212.002C155.248 211.861 155.792 211.422 156.152 210.682C156.544 209.895 156.65 209.038 156.47 208.11Z" fill="#0A0A0A"/>
<path d="M157.536 223.319C157.724 224.287 157.581 225.172 157.108 225.975C156.667 226.73 155.962 227.201 154.992 227.389C153.779 227.623 152.673 227.544 151.674 227.151C150.716 226.751 150.139 226.046 149.943 225.038C149.779 224.191 149.865 223.232 150.203 222.163C150.655 220.82 151.366 220.054 152.336 219.867C153.225 219.695 154.153 219.829 155.119 220.27C156.456 220.891 157.261 221.907 157.536 223.319ZM165.535 254.478C165.989 256.818 165.598 258.693 164.362 260.104C163.265 261.362 161.705 262.187 159.684 262.578C158.31 262.843 156.803 262.423 155.162 261.318C153.232 260.017 152.044 258.217 151.597 255.917C151.699 255.144 151.771 254.545 151.814 254.118C151.96 252.709 151.982 251.742 151.88 251.217C152.345 250.374 152.613 249.485 152.684 248.551C152.823 246.892 152.673 244.933 152.235 242.674C151.874 240.819 151.937 239.091 152.423 237.49C152.909 235.889 153.819 234.96 155.153 234.702C156.528 234.437 157.911 234.65 159.304 235.344C161.163 236.282 162.301 237.819 162.716 239.957C162.919 241.006 162.781 242.56 162.3 244.62C162.068 245.586 162.007 246.351 162.117 246.916C162.242 247.561 162.98 249.092 164.33 251.51C164.969 252.642 165.37 253.631 165.535 254.478Z" fill="#0A0A0A"/>
<path d="M183.839 289.142C184.012 290.03 183.748 290.939 183.048 291.869C182.388 292.792 181.371 293.386 179.997 293.652C179.027 293.839 178.28 293.879 177.755 293.771C177.264 293.615 176.608 293.156 175.789 292.393C174.443 293.449 173.453 294.184 172.821 294.6C171.71 295.358 170.488 295.867 169.154 296.125C165.112 296.906 161.913 296.415 159.558 294.653C157.492 293.085 156.13 290.607 155.472 287.219C154.901 284.274 155.106 281.012 156.089 277.432C157.063 273.812 158.622 271.041 160.766 269.12C161.131 268.841 161.682 268.546 162.418 268.236C163.188 267.878 163.815 267.652 164.3 267.558C165.634 267.3 166.949 267.381 168.247 267.8C169.141 268.087 170.506 268.849 172.339 270.085C172.465 269.223 172.612 268.358 172.779 267.489C173.124 266.459 173.984 265.812 175.358 265.546C176.49 265.327 177.48 265.784 178.329 266.918C179.211 268.003 179.824 269.433 180.169 271.207C180.38 272.296 180.555 274.062 180.694 276.505C180.865 278.899 181.032 281.378 181.194 283.941C181.358 284.788 181.813 285.726 182.558 286.753C183.303 287.781 183.73 288.577 183.839 289.142ZM162.966 277.86C162.088 278.741 161.783 279.868 162.049 281.239C162.151 281.764 162.326 282.232 162.573 282.644C162.813 283.016 163.143 283.309 163.561 283.521C164.229 283.936 164.987 284.061 165.836 283.897C166.685 283.733 167.499 283.282 168.279 282.546C169.058 281.809 169.323 280.795 169.072 279.505C168.877 278.496 168.393 277.732 167.621 277.212C166.849 276.691 165.998 276.521 165.068 276.701C164.26 276.857 163.559 277.243 162.966 277.86Z" fill="#0A0A0A"/>
</svg>
