<svg xmlns="http://www.w3.org/2000/svg" viewBox="0 -0.5 12 16" shape-rendering="crispEdges">
<metadata>Made with Pixels to Svg https://codepen.io/shshaw/pen/XbxvNj</metadata>
<path stroke="#2b2b2b" d="M4 0h4M3 1h1M8 1h1M2 2h1M9 2h1M1 3h1M10 3h1M1 4h1M10 4h1M0 5h1M11 5h1M0 6h1M11 6h1M0 7h1M11 7h1M0 8h1M11 8h1M0 9h1M11 9h1M0 10h1M11 10h1M0 11h1M11 11h1M1 12h1M10 12h1M1 13h1M10 13h1M2 14h1M9 14h1M3 15h6" />
<path stroke="#e9ba73" d="M4 1h1M3 2h1M2 3h2M2 4h2M2 5h2M2 6h2M2 7h2M2 8h3M3 9h3M10 9h1M3 10h8M1 11h1M4 11h6M2 12h1M5 12h4M2 13h1M3 14h1" />
<path stroke="#ffe39d" d="M5 1h3M4 2h5M4 3h3M9 3h1M4 4h2M4 5h2M10 5h1M4 6h3M9 6h2M4 7h7M5 8h6M6 9h4" />
<path stroke="#fff3c9" d="M7 3h2M6 4h4M6 5h4M7 6h2" />
<path stroke="#c2814b" d="M1 5h1M1 6h1M1 7h1M1 8h1M1 9h2M1 10h2M2 11h2M10 11h1M3 12h2M9 12h1M3 13h7M4 14h5" />
</svg>